<?xml version="1.0" encoding="UTF-8"?>
<svg xmlns="http://www.w3.org/2000/svg" onmouseup="{ if(window.parent.document.onmouseup) window.parent.document.onmouseup(arguments[0]);}" xml:space="preserve" style="enable-background:new 0 0 1280 895" viewBox="0 0 1280 895" y="0" x="0" id="Funktionsweise_von_WordPress" version="1.1"><style>.st6{fill:#fff;stroke-width:2}.st10,.st6,.st7,.st8{stroke:#000;stroke-miterlimit:10}.st7{fill:none;stroke-width:4}.st10,.st8{fill:#96e56c}.st10{fill:#44b9e2}.st12{fill:#eeefed}.st13,.st14,.st15{stroke-miterlimit:10}.st13{opacity:.75;fill:#826eb4;stroke:#000;stroke-width:2}.st14,.st15{fill:#44b9e2;stroke:#fff}.st15{fill:#826eb4}</style><path data-cppathid="10000" d="M429.4 720h850v175h-850z" style="fill:#e1e1e1"/><path data-cppathid="10001" d="M849.4 0h430v720h-430z" style="opacity:.5;fill:#826eb4"/><path data-cppathid="10002" d="M429.4 0h420v720h-420z" style="opacity:.5;fill:#96e56c"/><path data-cppathid="10003" d="M-.6 0h430v720H-.6z" style="opacity:.5;fill:#44b9e2"/><path data-cppathid="10004" d="M63.3 504.8h294V701h-294z" class="st6"/><path data-cppathid="10005" d="M138.3 559h-15.9v-2.9l10.3-14.7h-10v-3.8H138v2.9l-10.3 14.7h10.5v3.8zM151.8 559l-.9-2.2h-.1c-.8.9-1.5 1.6-2.3 2-.8.4-1.8.5-3.1.5-1.6 0-2.8-.4-3.7-1.3s-1.4-2.2-1.4-3.8c0-1.7.6-3 1.8-3.8 1.2-.8 3-1.3 5.5-1.4l2.8-.1v-.7c0-1.7-.8-2.5-2.5-2.5-1.3 0-2.8.4-4.6 1.2l-1.5-3c1.9-1 4-1.5 6.3-1.5 2.2 0 3.9.5 5.1 1.4s1.8 2.4 1.8 4.4V559h-3.2zm-1.3-7.5-1.7.1c-1.3 0-2.3.3-2.9.7s-1 1.1-1 2c0 1.3.7 1.9 2.2 1.9 1 0 1.9-.3 2.5-.9s.9-1.4.9-2.4v-1.4zM174.6 559h-4.5v-9.6c0-2.4-.9-3.5-2.6-3.5-1.2 0-2.2.4-2.7 1.3s-.8 2.2-.8 4.1v7.7h-4.5v-22.8h4.5v4.6c0 .4 0 1.2-.1 2.5l-.1 1.3h.2c1-1.6 2.6-2.4 4.7-2.4 1.9 0 3.4.5 4.4 1.6s1.5 2.5 1.5 4.5V559zM183.7 559h-4.5v-22.8h4.5V559zM200 559l-.6-2.1h-.2c-.5.8-1.2 1.4-2 1.8-.9.4-1.9.6-3 .6-1.9 0-3.4-.5-4.4-1.5s-1.5-2.5-1.5-4.4v-10.7h4.5v9.6c0 1.2.2 2.1.6 2.7s1.1.9 2 .9c1.2 0 2.2-.4 2.7-1.3.6-.8.8-2.2.8-4.2v-7.7h4.5V559H200zM223.2 559h-4.5v-9.6c0-1.2-.2-2.1-.6-2.7-.4-.6-1.1-.9-2-.9-1.2 0-2.2.4-2.7 1.3-.6.8-.8 2.2-.8 4.2v7.7h-4.5v-16.4h3.4l.6 2.1h.2c.5-.8 1.2-1.4 2.1-1.8s1.9-.6 3-.6c1.9 0 3.3.5 4.3 1.5s1.5 2.5 1.5 4.5V559zM242.1 542.7v2.3l-2.6.7c.5.7.7 1.6.7 2.5 0 1.8-.6 3.1-1.8 4.1-1.2 1-2.9 1.5-5.1 1.5h-.8l-.7-.1c-.5.4-.7.7-.7 1.2 0 .6.8 1 2.5 1h2.8c1.8 0 3.2.4 4.1 1.2s1.4 1.9 1.4 3.4c0 1.9-.8 3.4-2.4 4.5s-3.9 1.6-6.9 1.6c-2.3 0-4-.4-5.2-1.2-1.2-.8-1.8-1.9-1.8-3.3 0-1 .3-1.8.9-2.5s1.5-1.1 2.7-1.4c-.5-.2-.9-.5-1.2-1s-.5-.9-.5-1.4c0-.6.2-1.1.5-1.6.4-.4.9-.8 1.6-1.2-.9-.4-1.5-1-2-1.8s-.8-1.8-.8-2.9c0-1.8.6-3.2 1.7-4.1s2.8-1.5 5-1.5c.5 0 1 0 1.6.1.6.1 1 .1 1.2.2h5.8zm-12.7 18.7c0 .6.3 1.1.9 1.5s1.4.5 2.5.5c1.6 0 2.9-.2 3.8-.7s1.4-1 1.4-1.8c0-.6-.3-1-.8-1.3s-1.4-.4-2.5-.4h-2.3c-.8 0-1.5.2-2.1.6s-.9.9-.9 1.6zM231 548c0 .9.2 1.6.6 2.1s1 .8 1.9.8c.8 0 1.5-.3 1.8-.8s.6-1.2.6-2.1c0-2-.8-3-2.4-3-1.6.1-2.5 1.1-2.5 3zM266.3 559h-3.5v-10c0-1.2-.2-2.2-.7-2.8s-1.2-.9-2.2-.9c-1.3 0-2.3.4-2.9 1.3-.6.9-.9 2.3-.9 4.3v8.1h-3.4v-16.2h2.7l.5 2.1h.2c.4-.8 1.1-1.4 2-1.8s1.8-.6 2.8-.6c2.5 0 4.1.8 5 2.5h.2c.5-.8 1.2-1.4 2-1.9s1.9-.7 3-.7c1.9 0 3.3.5 4.2 1.5s1.3 2.5 1.3 4.5V559h-3.4v-10c0-1.2-.2-2.2-.7-2.8s-1.2-.9-2.2-.9c-1.3 0-2.3.4-2.9 1.3-.6.8-.9 2.1-.9 3.8v8.6zM281.1 538.6c0-.6.2-1.1.5-1.4s.8-.5 1.4-.5c.6 0 1.1.2 1.4.5s.5.8.5 1.4c0 .6-.2 1-.5 1.4-.3.3-.8.5-1.4.5-.6 0-1.1-.2-1.4-.5-.3-.4-.5-.9-.5-1.4zm3.7 20.4h-3.4v-16.2h3.4V559zM295.7 556.6c.8 0 1.7-.1 2.5-.4v2.6c-.4.2-.9.3-1.5.4-.6.1-1.2.2-1.9.2-3.3 0-4.9-1.7-4.9-5.2v-8.7h-2.2V544l2.4-1.3 1.2-3.4h2.1v3.6h4.6v2.6h-4.6v8.7c0 .8.2 1.4.6 1.8.5.4 1.1.6 1.7.6zM135.3 580.1c0 2.2-.7 4-2.2 5.1s-3.5 1.8-6.3 1.8h-2.2v8h-3.5v-21.4h6.2c2.7 0 4.7.5 6 1.6s2 2.8 2 4.9zm-10.7 4h1.9c1.8 0 3.1-.3 4-.9s1.3-1.6 1.3-2.9c0-1.2-.4-2.1-1.1-2.8s-1.9-.9-3.5-.9h-2.4v7.5zM149.3 595l-.7-2.3h-.1c-.8 1-1.6 1.7-2.4 2-.8.4-1.8.5-3 .5-1.6 0-2.8-.4-3.7-1.3s-1.3-2.1-1.3-3.6c0-1.7.6-2.9 1.9-3.8s3.1-1.3 5.7-1.4l2.8-.1v-.9c0-1-.2-1.8-.7-2.3-.5-.5-1.2-.8-2.2-.8-.8 0-1.6.1-2.4.4s-1.5.5-2.2.9l-1.1-2.5c.9-.5 1.8-.8 2.9-1s2-.4 3-.4c2.1 0 3.6.4 4.7 1.3s1.6 2.3 1.6 4.2V595h-2.8zm-5.1-2.3c1.2 0 2.3-.3 3-1s1.1-1.7 1.1-2.9v-1.4l-2.1.1c-1.6.1-2.8.3-3.5.8-.7.5-1.1 1.2-1.1 2.2 0 .7.2 1.3.6 1.7.5.3 1.1.5 2 .5zM154.1 578.8h3.8l3.3 9.2c.5 1.3.8 2.5 1 3.7h.1c.1-.5.2-1.2.5-2 .2-.8 1.5-4.4 3.7-10.9h3.7l-6.9 18.4c-1.3 3.4-3.4 5.1-6.3 5.1-.8 0-1.5-.1-2.2-.2v-2.7c.5.1 1.1.2 1.8.2 1.7 0 2.8-1 3.5-2.9l.6-1.5-6.6-16.4zM187.2 580.1c0 2.2-.7 4-2.2 5.1s-3.5 1.8-6.3 1.8h-2.2v8H173v-21.4h6.2c2.7 0 4.7.5 6 1.6s2 2.8 2 4.9zm-10.6 4h1.9c1.8 0 3.1-.3 4-.9s1.3-1.6 1.3-2.9c0-1.2-.4-2.1-1.1-2.8s-1.9-.9-3.5-.9h-2.4v7.5zM201.3 595l-.7-2.3h-.1c-.8 1-1.6 1.7-2.4 2-.8.4-1.8.5-3 .5-1.6 0-2.8-.4-3.7-1.3s-1.3-2.1-1.3-3.6c0-1.7.6-2.9 1.9-3.8s3.1-1.3 5.7-1.4l2.8-.1v-.9c0-1-.2-1.8-.7-2.3-.5-.5-1.2-.8-2.2-.8-.8 0-1.6.1-2.4.4s-1.5.5-2.2.9l-1.1-2.5c.9-.5 1.8-.8 2.9-1s2-.4 3-.4c2.1 0 3.6.4 4.7 1.3s1.6 2.3 1.6 4.2V595h-2.8zm-5.1-2.3c1.2 0 2.3-.3 3-1s1.1-1.7 1.1-2.9v-1.4l-2.1.1c-1.6.1-2.8.3-3.5.8-.7.5-1.1 1.2-1.1 2.2 0 .7.2 1.3.6 1.7.4.3 1.1.5 2 .5zM212 595h-3.4v-22.8h3.4V595zM220.5 591.9c-.5 1.8-1.3 4.2-2.6 7h-2.5c.7-2.6 1.2-5.1 1.5-7.4h3.4l.2.4zM245.3 573.6h3.6l-7.5 21.4h-3.7l-7.5-21.4h3.6l4.5 13.3c.2.6.5 1.5.7 2.5s.4 1.7.5 2.2c.1-.7.3-1.6.6-2.6s.5-1.7.6-2.2l4.6-13.2zM251.7 595v-21.4h3.5V595h-3.5zM273.2 589.2c0 1.9-.7 3.4-2.1 4.5s-3.3 1.6-5.7 1.6-4.4-.4-5.9-1.1v-3.3c1 .5 2 .8 3.1 1.1s2.1.4 3.1.4c1.4 0 2.4-.3 3.1-.8s1-1.2 1-2.1c0-.8-.3-1.5-.9-2s-1.9-1.2-3.8-2c-2-.8-3.3-1.7-4.1-2.7s-1.2-2.2-1.2-3.7c0-1.8.6-3.2 1.9-4.2s3-1.5 5.1-1.5c2.1 0 4.1.4 6.1 1.3l-1.1 2.9c-1.9-.8-3.6-1.2-5.1-1.2-1.1 0-2 .2-2.6.7s-.9 1.1-.9 2c0 .6.1 1 .4 1.4.2.4.6.8 1.2 1.1s1.5.8 2.9 1.4c1.6.7 2.7 1.3 3.5 1.8s1.3 1.2 1.6 1.9.4 1.6.4 2.5zM290.7 595l-2.1-5.9h-8.2l-2.1 5.9h-3.7l8-21.5h3.8l8 21.5h-3.7zm-3.1-8.9-2-5.8c-.1-.4-.3-1-.6-1.8s-.4-1.5-.5-1.8c-.3 1.2-.6 2.5-1.2 3.9l-1.9 5.6h6.2zM300.4 591.9c-.5 1.8-1.3 4.2-2.6 7h-2.5c.7-2.6 1.2-5.1 1.5-7.4h3.4l.2.4zM137 631l-6.2-17.9h-.1c.2 2.7.2 5.1.2 7.5V631h-3.2v-21.4h4.9l5.9 17h.1l6.1-17h5V631h-3.4v-10.6c0-1.1 0-2.5.1-4.2s.1-2.7.1-3.1h-.1L140 631h-3zM165.2 631l-.7-2.3h-.1c-.8 1-1.6 1.7-2.4 2-.8.4-1.8.5-3 .5-1.6 0-2.8-.4-3.7-1.3s-1.3-2.1-1.3-3.6c0-1.7.6-2.9 1.9-3.8s3.1-1.3 5.7-1.4l2.8-.1v-.9c0-1-.2-1.8-.7-2.3-.5-.5-1.2-.8-2.2-.8-.8 0-1.6.1-2.4.4s-1.5.5-2.2.9l-1.1-2.5c.9-.5 1.8-.8 2.9-1s2-.4 3-.4c2.1 0 3.6.4 4.7 1.3s1.6 2.3 1.6 4.2V631h-2.8zm-5.1-2.3c1.2 0 2.3-.3 3-1s1.1-1.7 1.1-2.9v-1.4l-2.1.1c-1.6.1-2.8.3-3.5.8-.7.5-1.1 1.2-1.1 2.2 0 .7.2 1.3.6 1.7.5.3 1.1.5 2 .5zM183.3 626.4c0 1.6-.6 2.8-1.7 3.6-1.2.8-2.8 1.3-5 1.3s-3.9-.3-5.2-1v-3c1.9.9 3.7 1.3 5.3 1.3 2.1 0 3.2-.6 3.2-1.9 0-.4-.1-.8-.4-1s-.6-.6-1.2-.8-1.3-.6-2.2-1c-1.9-.7-3.1-1.4-3.8-2.2s-1-1.7-1-2.8c0-1.4.6-2.5 1.7-3.2s2.6-1.2 4.6-1.2c1.9 0 3.7.4 5.4 1.2l-1.1 2.6c-1.7-.7-3.2-1.1-4.4-1.1-1.8 0-2.7.5-2.7 1.6 0 .5.2.9.7 1.3s1.5.8 3.1 1.5c1.3.5 2.3 1 2.9 1.4s1.1.9 1.3 1.5c.4.5.5 1.2.5 1.9zM193.1 628.6c.8 0 1.7-.1 2.5-.4v2.6c-.4.2-.9.3-1.5.4-.6.1-1.2.2-1.9.2-3.3 0-4.9-1.7-4.9-5.2v-8.7h-2.2V616l2.4-1.3 1.2-3.4h2.1v3.6h4.6v2.6h-4.6v8.7c0 .8.2 1.4.6 1.8.5.4 1 .6 1.7.6zM205.9 631.3c-2.5 0-4.5-.7-5.9-2.2-1.4-1.5-2.1-3.5-2.1-6.1 0-2.6.7-4.7 2-6.2s3.1-2.3 5.4-2.3c2.1 0 3.8.6 5.1 1.9s1.9 3.1 1.9 5.4v1.9h-10.8c0 1.6.5 2.8 1.3 3.6.8.8 1.9 1.3 3.4 1.3 1 0 1.8-.1 2.7-.3.8-.2 1.7-.5 2.7-.9v2.8c-.8.4-1.7.7-2.5.8s-2.1.3-3.2.3zm-.6-14.1c-1.1 0-2 .3-2.6 1s-1.1 1.7-1.2 3h7.4c0-1.3-.3-2.4-1-3-.6-.7-1.5-1-2.6-1zM224.4 614.6c.7 0 1.3 0 1.7.1l-.3 3.2c-.5-.1-1-.2-1.5-.2-1.4 0-2.5.4-3.3 1.3s-1.3 2.1-1.3 3.5v8.5h-3.4v-16.2h2.7l.5 2.9h.2c.5-1 1.2-1.7 2.1-2.3s1.6-.8 2.6-.8zM238.6 612.3c-2 0-3.6.7-4.7 2.1s-1.7 3.4-1.7 5.9c0 2.6.6 4.6 1.7 6s2.7 2 4.8 2c.9 0 1.8-.1 2.6-.3.8-.2 1.7-.4 2.7-.7v3c-1.7.6-3.6 1-5.7 1-3.1 0-5.5-.9-7.2-2.8-1.7-1.9-2.5-4.6-2.5-8.2 0-2.2.4-4.2 1.2-5.8s2-2.9 3.5-3.8 3.4-1.3 5.4-1.3c2.2 0 4.2.5 6.1 1.4l-1.3 2.9c-.7-.3-1.5-.6-2.3-.9s-1.8-.5-2.6-.5zM258.2 631l-.7-2.3h-.1c-.8 1-1.6 1.7-2.4 2-.8.4-1.8.5-3 .5-1.6 0-2.8-.4-3.7-1.3s-1.3-2.1-1.3-3.6c0-1.7.6-2.9 1.9-3.8s3.1-1.3 5.7-1.4l2.8-.1v-.9c0-1-.2-1.8-.7-2.3-.5-.5-1.2-.8-2.2-.8-.8 0-1.6.1-2.4.4s-1.5.5-2.2.9l-1.1-2.5c.9-.5 1.8-.8 2.9-1s2-.4 3-.4c2.1 0 3.6.4 4.7 1.3s1.6 2.3 1.6 4.2V631h-2.8zm-5.1-2.3c1.2 0 2.3-.3 3-1s1.1-1.7 1.1-2.9v-1.4l-2.1.1c-1.6.1-2.8.3-3.5.8-.7.5-1.1 1.2-1.1 2.2 0 .7.2 1.3.6 1.7.5.3 1.1.5 2 .5zM273.7 614.6c.7 0 1.3 0 1.7.1l-.3 3.2c-.5-.1-1-.2-1.5-.2-1.4 0-2.5.4-3.3 1.3s-1.3 2.1-1.3 3.5v8.5h-3.4v-16.2h2.7l.5 2.9h.2c.5-1 1.2-1.7 2.1-2.3s1.6-.8 2.6-.8zM284.5 628.6c.8 0 1.7-.1 2.5-.4v2.6c-.4.2-.9.3-1.5.4-.6.1-1.2.2-1.9.2-3.3 0-4.9-1.7-4.9-5.2v-8.7h-2.2V616l2.4-1.3 1.2-3.4h2.1v3.6h4.6v2.6h-4.6v8.7c0 .8.2 1.4.6 1.8.4.4 1 .6 1.7.6zM293.8 627.9c-.5 1.8-1.3 4.2-2.6 7h-2.5c.7-2.6 1.2-5.1 1.5-7.4h3.4l.2.4zM136.9 667v-21.4h3.5V664h9.1v3h-12.6zM162.9 667l-.7-2.3h-.1c-.8 1-1.6 1.7-2.4 2-.8.4-1.8.5-3 .5-1.6 0-2.8-.4-3.7-1.3s-1.3-2.1-1.3-3.6c0-1.7.6-2.9 1.9-3.8s3.1-1.3 5.7-1.4l2.8-.1v-.9c0-1-.2-1.8-.7-2.3-.5-.5-1.2-.8-2.2-.8-.8 0-1.6.1-2.4.4s-1.5.5-2.2.9l-1.1-2.5c.9-.5 1.8-.8 2.9-1s2-.4 3-.4c2.1 0 3.6.4 4.7 1.3s1.6 2.3 1.6 4.2V667h-2.8zm-5.1-2.3c1.2 0 2.3-.3 3-1s1.1-1.7 1.1-2.9v-1.4l-2.1.1c-1.6.1-2.8.3-3.5.8-.7.5-1.1 1.2-1.1 2.2 0 .7.2 1.3.6 1.7.5.3 1.1.5 2 .5zM181.1 662.4c0 1.6-.6 2.8-1.7 3.6-1.2.8-2.8 1.3-5 1.3s-3.9-.3-5.2-1v-3c1.9.9 3.7 1.3 5.3 1.3 2.1 0 3.2-.6 3.2-1.9 0-.4-.1-.8-.4-1s-.6-.6-1.2-.8-1.3-.6-2.2-1c-1.9-.7-3.1-1.4-3.8-2.2s-1-1.7-1-2.8c0-1.4.6-2.5 1.7-3.2s2.6-1.2 4.6-1.2c1.9 0 3.7.4 5.4 1.2l-1.1 2.6c-1.7-.7-3.2-1.1-4.4-1.1-1.8 0-2.7.5-2.7 1.6 0 .5.2.9.7 1.3s1.5.8 3.1 1.5c1.3.5 2.3 1 2.9 1.4s1.1.9 1.3 1.5c.3.5.5 1.2.5 1.9zM190.8 664.6c.8 0 1.7-.1 2.5-.4v2.6c-.4.2-.9.3-1.5.4-.6.1-1.2.2-1.9.2-3.3 0-4.9-1.7-4.9-5.2v-8.7h-2.2V652l2.4-1.3 1.2-3.4h2.1v3.6h4.6v2.6h-4.6v8.7c0 .8.2 1.4.6 1.8.5.4 1.1.6 1.7.6zM207.5 662.4c0 1.6-.6 2.8-1.7 3.6-1.2.8-2.8 1.3-5 1.3s-3.9-.3-5.2-1v-3c1.9.9 3.7 1.3 5.3 1.3 2.1 0 3.2-.6 3.2-1.9 0-.4-.1-.8-.4-1s-.6-.6-1.2-.8-1.3-.6-2.2-1c-1.9-.7-3.1-1.4-3.8-2.2s-1-1.7-1-2.8c0-1.4.6-2.5 1.7-3.2s2.6-1.2 4.6-1.2c1.9 0 3.7.4 5.4 1.2l-1.1 2.6c-1.7-.7-3.2-1.1-4.4-1.1-1.8 0-2.7.5-2.7 1.6 0 .5.2.9.7 1.3s1.5.8 3.1 1.5c1.3.5 2.3 1 2.9 1.4s1.1.9 1.3 1.5c.3.5.5 1.2.5 1.9zM217.7 667.3c-2.5 0-4.3-.7-5.6-2.1-1.3-1.4-1.9-3.5-1.9-6.2s.7-4.8 2-6.3 3.3-2.2 5.8-2.2c1.7 0 3.2.3 4.6 1l-1 2.8c-1.5-.6-2.7-.8-3.6-.8-2.8 0-4.2 1.9-4.2 5.6 0 1.8.3 3.2 1 4.1s1.7 1.4 3.1 1.4c1.5 0 3-.4 4.4-1.1v3c-.6.4-1.3.6-2 .8s-1.6 0-2.6 0zM240.3 667h-3.5v-10c0-1.2-.3-2.2-.8-2.8s-1.3-.9-2.4-.9c-1.4 0-2.5.4-3.2 1.3-.7.9-1 2.3-1 4.3v8H226v-22.8h3.4v5.8c0 .9-.1 1.9-.2 3h.2c.5-.8 1.1-1.4 2-1.8s1.8-.6 2.9-.6c3.9 0 5.9 2 5.9 5.9V667zM253.3 650.6c.7 0 1.3 0 1.7.1l-.3 3.2c-.5-.1-1-.2-1.5-.2-1.4 0-2.5.4-3.3 1.3s-1.3 2.1-1.3 3.5v8.5h-3.4v-16.2h2.7l.5 2.9h.2c.5-1 1.2-1.7 2.1-2.3s1.6-.8 2.6-.8zM257.8 646.6c0-.6.2-1.1.5-1.4s.8-.5 1.4-.5c.6 0 1.1.2 1.4.5s.5.8.5 1.4c0 .6-.2 1-.5 1.4-.3.3-.8.5-1.4.5-.6 0-1.1-.2-1.4-.5-.3-.4-.5-.9-.5-1.4zm3.7 20.4H258v-16.2h3.4V667zM274.5 653.5h-4V667H267v-13.6h-2.7v-1.6l2.7-1.1v-1.1c0-1.9.4-3.3 1.3-4.3.9-.9 2.3-1.4 4.1-1.4 1.2 0 2.4.2 3.6.6l-.9 2.6c-.8-.3-1.7-.4-2.4-.4-.8 0-1.4.2-1.7.7-.4.5-.5 1.2-.5 2.2v1.1h4v2.8zM283.3 664.6c.8 0 1.7-.1 2.5-.4v2.6c-.4.2-.9.3-1.5.4-.6.1-1.2.2-1.9.2-3.3 0-4.9-1.7-4.9-5.2v-8.7h-2.2V652l2.4-1.3 1.2-3.4h2.1v3.6h4.6v2.6H281v8.7c0 .8.2 1.4.6 1.8.5.4 1 .6 1.7.6z"/><path data-cppathid="10006" d="M210.3 419.6v46.6" class="st7"/><path data-cppathid="10007" d="m194.4 461.6 15.9 27.6 16-27.6z"/><path data-cppathid="10008" d="M486 105h300v300H486z" class="st6" id="Hintergrund_00000181062470127580291030000002495353705063497906_"/><path data-cppathid="10009" d="M509.1 265h73.3v42h-73.3zM600.4 265h73.3v42h-73.3zM690.4 265h73.3v42h-73.3zM508.8 317h73.3v42h-73.3zM600 317h73.3v42H600zM690 317h73.3v42H690z" class="st8"/><path data-cppathid="10010" d="M487 145.5h298v84H487z" style="fill:#96e56c"/><g><path data-cppathid="10011" d="M536.5 61.8 531.4 45h-.1c.2 3.4.3 5.7.3 6.8v10h-4.1V40.4h6.2l5.1 16.4h.1l5.4-16.4h6.2v21.4h-4.2V50c0-.7.1-2.3.2-5h-.1l-5.5 16.8h-4.4zM555.2 41.2c0-1.5.8-2.2 2.4-2.2s2.4.7 2.4 2.2c0 .7-.2 1.2-.6 1.6-.4.4-1 .6-1.8.6-1.6 0-2.4-.7-2.4-2.2zm4.7 20.6h-4.5V45.4h4.5v16.4zM571.5 58.5c.8 0 1.7-.2 2.8-.5v3.3c-1.1.5-2.5.7-4.1.7-1.8 0-3.1-.5-3.9-1.4-.8-.9-1.2-2.3-1.2-4.1v-7.9H563v-1.9l2.5-1.5 1.3-3.5h2.9v3.5h4.6v3.4h-4.6v7.9c0 .6.2 1.1.5 1.4s.7.6 1.3.6zM591.8 45.4v2.3l-2.6.7c.5.7.7 1.6.7 2.5 0 1.8-.6 3.1-1.8 4.1-1.2 1-2.9 1.5-5.1 1.5h-.8l-.7-.1c-.5.4-.7.7-.7 1.2 0 .6.8 1 2.5 1h2.8c1.8 0 3.2.4 4.1 1.2s1.4 1.9 1.4 3.4c0 1.9-.8 3.4-2.4 4.5s-3.9 1.6-6.9 1.6c-2.3 0-4-.4-5.2-1.2-1.2-.8-1.8-1.9-1.8-3.3 0-1 .3-1.8.9-2.5s1.5-1.1 2.7-1.4c-.5-.2-.9-.5-1.2-1s-.5-.9-.5-1.4c0-.6.2-1.1.5-1.6.4-.4.9-.8 1.6-1.2-.9-.4-1.5-1-2-1.8s-.8-1.8-.8-2.9c0-1.8.6-3.2 1.7-4.1s2.8-1.5 5-1.5c.5 0 1 0 1.6.1.6.1 1 .1 1.2.2h5.8zm-12.6 18.7c0 .6.3 1.1.9 1.5s1.4.5 2.5.5c1.6 0 2.9-.2 3.8-.7s1.4-1 1.4-1.8c0-.6-.3-1-.8-1.3s-1.4-.4-2.5-.4h-2.3c-.8 0-1.5.2-2.1.6s-.9 1-.9 1.6zm1.6-13.3c0 .9.2 1.6.6 2.1s1 .8 1.9.8c.8 0 1.5-.3 1.8-.8s.6-1.2.6-2.1c0-2-.8-3-2.4-3-1.7 0-2.5 1-2.5 3zM599 61.8h-4.5V39h4.5v22.8zM603.5 41.2c0-1.5.8-2.2 2.4-2.2s2.4.7 2.4 2.2c0 .7-.2 1.2-.6 1.6-.4.4-1 .6-1.8.6-1.6 0-2.4-.7-2.4-2.2zm4.6 20.6h-4.5V45.4h4.5v16.4zM620.2 62.1c-2.6 0-4.7-.7-6.2-2.2s-2.2-3.5-2.2-6.2.7-4.9 2.1-6.4 3.3-2.2 5.7-2.2c2.3 0 4.1.7 5.4 2s1.9 3.1 1.9 5.5v2.2h-10.6c0 1.3.4 2.3 1.1 3s1.7 1.1 3 1.1c1 0 1.9-.1 2.8-.3s1.8-.5 2.8-1v3.5c-.8.4-1.6.7-2.5.9-.9 0-2 .1-3.3.1zm-.6-13.8c-.9 0-1.7.3-2.2.9-.5.6-.8 1.5-.9 2.6h6.3c0-1.1-.3-2-.9-2.6-.6-.6-1.3-.9-2.3-.9zM635.7 62.1c-1.9 0-3.4-.7-4.5-2.2s-1.6-3.6-1.6-6.2c0-2.7.6-4.8 1.7-6.3s2.7-2.2 4.6-2.2c2.1 0 3.6.8 4.7 2.4h.1c-.2-1.2-.3-2.3-.3-3.3V39h4.5v22.8h-3.4l-.9-2.1h-.2c-1 1.6-2.6 2.4-4.7 2.4zm1.6-3.6c1.1 0 2-.3 2.5-1s.8-1.8.9-3.4v-.5c0-1.8-.3-3-.8-3.8s-1.4-1.1-2.6-1.1c-1 0-1.8.4-2.3 1.3-.6.8-.8 2.1-.8 3.7s.3 2.8.8 3.6c.5.8 1.3 1.2 2.3 1.2zM657 62.1c-2.6 0-4.7-.7-6.2-2.2s-2.2-3.5-2.2-6.2.7-4.9 2.1-6.4 3.3-2.2 5.7-2.2c2.3 0 4.1.7 5.4 2s1.9 3.1 1.9 5.5v2.2h-10.6c0 1.3.4 2.3 1.1 3s1.7 1.1 3 1.1c1 0 1.9-.1 2.8-.3s1.8-.5 2.8-1v3.5c-.8.4-1.6.7-2.5.9-1 0-2.1.1-3.3.1zm-.7-13.8c-.9 0-1.7.3-2.2.9-.5.6-.8 1.5-.9 2.6h6.3c0-1.1-.3-2-.9-2.6-.6-.6-1.3-.9-2.3-.9zM676.4 45.1c.6 0 1.1 0 1.5.1l-.3 4.2c-.4-.1-.8-.1-1.3-.1-1.4 0-2.5.4-3.3 1.1s-1.2 1.8-1.2 3.1v8.3h-4.5V45.4h3.4l.7 2.8h.2c.5-.9 1.2-1.7 2.1-2.2s1.7-.9 2.7-.9zM692.3 56.9c0 1.7-.6 3-1.8 3.8s-2.9 1.3-5.2 1.3c-1.2 0-2.2-.1-3-.2-.8-.2-1.6-.4-2.4-.7v-3.7c.8.4 1.8.7 2.8 1s2 .4 2.7.4c1.6 0 2.4-.5 2.4-1.4 0-.4-.1-.6-.3-.9-.2-.2-.6-.5-1.1-.7-.5-.3-1.2-.6-2.1-1-1.3-.5-2.2-1-2.8-1.5s-1-1-1.3-1.5c-.3-.6-.4-1.3-.4-2.1 0-1.5.6-2.6 1.7-3.4s2.7-1.2 4.8-1.2c2 0 3.9.4 5.8 1.3l-1.3 3.2c-.8-.4-1.6-.6-2.3-.9s-1.4-.3-2.2-.3c-1.3 0-2 .4-2 1.1 0 .4.2.7.6 1s1.4.7 2.8 1.3c1.3.5 2.2 1 2.8 1.5s1 1 1.3 1.6.5 1.2.5 2zM703.2 62.1c-2.6 0-4.7-.7-6.2-2.2s-2.2-3.5-2.2-6.2.7-4.9 2.1-6.4 3.3-2.2 5.7-2.2c2.3 0 4.1.7 5.4 2s1.9 3.1 1.9 5.5v2.2h-10.6c0 1.3.4 2.3 1.1 3s1.7 1.1 3 1.1c1 0 1.9-.1 2.8-.3s1.8-.5 2.8-1v3.5c-.8.4-1.6.7-2.5.9-.9 0-2 .1-3.3.1zm-.6-13.8c-.9 0-1.7.3-2.2.9-.5.6-.8 1.5-.9 2.6h6.3c0-1.1-.3-2-.9-2.6-.6-.6-1.4-.9-2.3-.9zM713.3 41.2c0-1.5.8-2.2 2.4-2.2s2.4.7 2.4 2.2c0 .7-.2 1.2-.6 1.6-.4.4-1 .6-1.8.6-1.6 0-2.4-.7-2.4-2.2zm4.7 20.6h-4.5V45.4h4.5v16.4zM729.6 58.5c.8 0 1.7-.2 2.8-.5v3.3c-1.1.5-2.5.7-4.1.7-1.8 0-3.1-.5-3.9-1.4-.8-.9-1.2-2.3-1.2-4.1v-7.9H721v-1.9l2.5-1.5 1.3-3.5h2.9v3.5h4.6v3.4h-4.6v7.9c0 .6.2 1.1.5 1.4s.8.6 1.4.6zM743.1 62.1c-2.6 0-4.7-.7-6.2-2.2s-2.2-3.5-2.2-6.2.7-4.9 2.1-6.4 3.3-2.2 5.7-2.2c2.3 0 4.1.7 5.4 2s1.9 3.1 1.9 5.5v2.2h-10.6c0 1.3.4 2.3 1.1 3s1.7 1.1 3 1.1c1 0 1.9-.1 2.8-.3s1.8-.5 2.8-1v3.5c-.8.4-1.6.7-2.5.9-.9 0-2 .1-3.3.1zm-.6-13.8c-.9 0-1.7.3-2.2.9-.5.6-.8 1.5-.9 2.6h6.3c0-1.1-.3-2-.9-2.6-.6-.6-1.4-.9-2.3-.9zM523.5 79.5c0 1.9-.6 3.4-1.8 4.4-1.2 1-2.9 1.5-5.1 1.5H515v6.3h-3.8V74h5.7c2.2 0 3.8.5 4.9 1.4 1.2.9 1.7 2.3 1.7 4.1zm-8.5 2.9h1.2c1.2 0 2-.2 2.6-.7.6-.5.9-1.1.9-2 0-.9-.2-1.5-.7-2-.5-.4-1.2-.6-2.3-.6H515v5.3zM534.2 77.9c.5 0 .9 0 1.3.1l-.3 3.5c-.3-.1-.7-.1-1.1-.1-1.2 0-2.1.3-2.8.9-.7.6-1 1.5-1 2.6v6.9h-3.7V78.2h2.8l.5 2.3h.2c.4-.8 1-1.4 1.7-1.8.8-.6 1.6-.8 2.4-.8zM550.4 85c0 2.2-.6 4-1.8 5.2s-2.8 1.9-4.9 1.9c-1.3 0-2.5-.3-3.5-.9-1-.6-1.8-1.4-2.3-2.5s-.8-2.3-.8-3.8c0-2.2.6-4 1.7-5.2 1.2-1.2 2.8-1.9 4.9-1.9 1.3 0 2.5.3 3.5.9 1 .6 1.8 1.4 2.3 2.5s.9 2.3.9 3.8zm-9.5 0c0 1.4.2 2.4.7 3.1.4.7 1.2 1 2.2 1 1 0 1.7-.3 2.1-1 .4-.7.7-1.7.7-3.1 0-1.4-.2-2.4-.7-3s-1.2-1-2.2-1c-1 0-1.7.3-2.1 1-.4.6-.7 1.6-.7 3zM557.8 92c-1.6 0-2.9-.6-3.8-1.9-.9-1.2-1.4-3-1.4-5.2s.5-4 1.4-5.2c.9-1.2 2.2-1.9 3.9-1.9 1.7 0 3 .7 3.9 2h.1c-.2-1-.3-1.9-.3-2.7v-4.4h3.7v19h-2.9l-.7-1.8h-.2c-.7 1.5-2 2.1-3.7 2.1zm1.3-2.9c1 0 1.6-.3 2.1-.8.4-.6.7-1.5.7-2.8V85c0-1.5-.2-2.5-.7-3.1-.5-.6-1.2-1-2.2-1-.8 0-1.5.4-1.9 1.1-.5.7-.7 1.7-.7 3.1 0 1.3.2 2.3.7 3 .5.6 1.1 1 2 1zM578.9 91.8l-.5-1.7h-.2c-.4.6-1 1.1-1.7 1.5s-1.5.4-2.5.4c-1.6 0-2.8-.4-3.6-1.3-.8-.9-1.2-2.1-1.2-3.7v-8.9h3.7v8c0 1 .2 1.7.5 2.2.3.5.9.7 1.7.7 1 0 1.8-.3 2.3-1 .5-.7.7-1.8.7-3.5v-6.4h3.7v13.6h-2.9zM589.3 84.4l1.6-2.1 3.8-4.2h4.2l-5.4 5.9 5.7 7.7H595l-3.9-5.5-1.6 1.3v4.2h-3.7v-19h3.7v8.5l-.2 3.2zM607 89.1c.7 0 1.4-.1 2.3-.4v2.8c-.9.4-2.1.6-3.4.6-1.5 0-2.6-.4-3.3-1.1-.7-.8-1-1.9-1-3.4V81h-1.8v-1.6l2.1-1.2 1.1-2.9h2.4v2.9h3.8V81h-3.8v6.6c0 .5.1.9.4 1.2.3.2.7.3 1.2.3zM620.7 91.8l-.7-1.9h-.1c-.6.8-1.3 1.3-1.9 1.6-.7.3-1.5.5-2.6.5-1.3 0-2.3-.4-3.1-1.1-.8-.7-1.1-1.8-1.1-3.2 0-1.4.5-2.5 1.5-3.2 1-.7 2.5-1.1 4.6-1.1l2.4-.1v-.6c0-1.4-.7-2.1-2.1-2.1-1.1 0-2.4.3-3.8 1l-1.2-2.5c1.6-.8 3.3-1.2 5.2-1.2 1.8 0 3.2.4 4.2 1.2 1 .8 1.5 2 1.5 3.6v9.1h-2.8zm-1.1-6.3h-1.4c-1.1 0-1.9.2-2.4.6-.5.4-.8.9-.8 1.6 0 1 .6 1.6 1.8 1.6.9 0 1.6-.2 2.1-.7.5-.5.8-1.2.8-2v-1.1zM636.8 91.8l-.5-1.7h-.2c-.4.6-1 1.1-1.7 1.5s-1.6.5-2.5.5c-1.6 0-2.8-.4-3.6-1.3-.8-.9-1.2-2.1-1.2-3.7v-8.9h3.7v8c0 1 .2 1.7.5 2.2.3.5.9.7 1.7.7 1 0 1.8-.3 2.3-1 .5-.7.7-1.8.7-3.5v-6.4h3.7v13.6h-2.9zM653.1 87.7c0 1.4-.5 2.5-1.5 3.2s-2.4 1.1-4.4 1.1c-1 0-1.8-.1-2.5-.2s-1.4-.3-2-.6v-3.1c.7.3 1.5.6 2.3.8.9.2 1.6.3 2.3.3 1.4 0 2-.4 2-1.2 0-.3-.1-.5-.3-.7-.2-.2-.5-.4-.9-.6-.4-.2-1-.5-1.8-.8-1-.4-1.8-.8-2.3-1.2-.5-.4-.9-.8-1.1-1.3-.2-.5-.3-1.1-.3-1.8 0-1.2.5-2.1 1.4-2.8.9-.7 2.3-1 4-1 1.6 0 3.2.4 4.8 1.1l-1.1 2.7c-.7-.3-1.3-.5-1.9-.7s-1.2-.3-1.8-.3c-1.1 0-1.6.3-1.6.9 0 .3.2.6.5.9.4.2 1.1.6 2.3 1.1 1.1.4 1.8.8 2.3 1.2.5.4.9.8 1.1 1.3s.5 1.1.5 1.7zM659.7 91.8H656v-19h3.7v19zM663.5 74.6c0-1.2.7-1.8 2-1.8 1.4 0 2 .6 2 1.8 0 .6-.2 1-.5 1.3s-.8.5-1.5.5c-1.3.1-2-.6-2-1.8zm3.9 17.2h-3.7V78.2h3.7v13.6zM677.5 92c-2.2 0-3.9-.6-5.2-1.8-1.2-1.2-1.9-2.9-1.9-5.2 0-2.3.6-4.1 1.7-5.3 1.1-1.2 2.7-1.9 4.7-1.9 1.9 0 3.4.5 4.5 1.6s1.6 2.6 1.6 4.6v1.8h-8.8c0 1.1.4 1.9.9 2.5s1.4.9 2.5.9c.8 0 1.6-.1 2.3-.3s1.5-.4 2.3-.8V91c-.7.3-1.3.6-2.1.7-.6.3-1.5.3-2.5.3zm-.6-11.5c-.8 0-1.4.2-1.9.8-.4.5-.7 1.2-.8 2.1h5.2c0-.9-.3-1.6-.7-2.1-.4-.5-1-.8-1.8-.8zM693.6 80.9h-3.2v10.9h-3.7V80.9h-2.1v-1.8l2.1-1v-1c0-1.6.4-2.7 1.1-3.4.8-.7 2-1.1 3.7-1.1 1.3 0 2.4.2 3.4.6l-1 2.7c-.7-.2-1.4-.4-2.1-.4-.5 0-.9.2-1.1.5s-.4.7-.4 1.2v.9h3.2v2.8zM701.9 92c-2.2 0-3.9-.6-5.2-1.8-1.2-1.2-1.9-2.9-1.9-5.2 0-2.3.6-4.1 1.7-5.3 1.1-1.2 2.7-1.9 4.7-1.9 1.9 0 3.4.5 4.5 1.6s1.6 2.6 1.6 4.6v1.8h-8.8c0 1.1.4 1.9.9 2.5s1.4.9 2.5.9c.8 0 1.6-.1 2.3-.3s1.5-.4 2.3-.8V91c-.7.3-1.3.6-2.1.7-.5.3-1.4.3-2.5.3zm-.5-11.5c-.8 0-1.4.2-1.9.8-.4.5-.7 1.2-.8 2.1h5.2c0-.9-.3-1.6-.7-2.1-.4-.5-1-.8-1.8-.8zM718.1 77.9c.5 0 .9 0 1.3.1l-.3 3.5c-.3-.1-.7-.1-1.1-.1-1.2 0-2.1.3-2.8.9-.7.6-1 1.5-1 2.6v6.9h-3.7V78.2h2.8l.5 2.3h.2c.4-.8 1-1.4 1.7-1.8.8-.6 1.6-.8 2.4-.8zM731.5 91.8l-.5-1.7h-.2c-.4.6-1 1.1-1.7 1.5s-1.6.5-2.5.5c-1.6 0-2.8-.4-3.6-1.3-.8-.9-1.2-2.1-1.2-3.7v-8.9h3.7v8c0 1 .2 1.7.5 2.2.3.5.9.7 1.7.7 1 0 1.8-.3 2.3-1 .5-.7.7-1.8.7-3.5v-6.4h3.7v13.6h-2.9zM750.9 91.8h-3.7v-8c0-1-.2-1.7-.5-2.2s-.9-.7-1.7-.7c-1 0-1.8.3-2.3 1-.5.7-.7 1.8-.7 3.5v6.4h-3.7V78.2h2.8l.5 1.7h.2c.4-.7 1-1.2 1.7-1.5.7-.3 1.6-.5 2.5-.5 1.6 0 2.8.4 3.6 1.3.8.9 1.2 2.1 1.2 3.7v8.9zM766.6 78.2V80l-2.1.5c.4.6.6 1.3.6 2.1 0 1.5-.5 2.6-1.5 3.4-1 .8-2.4 1.2-4.3 1.2h-.7l-.5-.1c-.4.3-.6.6-.6 1 0 .5.7.8 2.1.8h2.3c1.5 0 2.6.3 3.4 1s1.2 1.6 1.2 2.8c0 1.6-.7 2.8-2 3.7-1.3.9-3.2 1.3-5.7 1.3-1.9 0-3.4-.3-4.4-1s-1.5-1.6-1.5-2.8c0-.8.3-1.5.8-2.1.5-.6 1.3-.9 2.3-1.2-.4-.2-.7-.4-1-.8-.3-.4-.4-.8-.4-1.2 0-.5.2-1 .5-1.3s.7-.7 1.3-1c-.7-.3-1.3-.8-1.7-1.5s-.6-1.5-.6-2.4c0-1.5.5-2.6 1.5-3.5 1-.8 2.4-1.2 4.2-1.2.4 0 .8 0 1.4.1.5.1.9.1 1 .2h4.4zm-10.5 15.5c0 .5.2.9.7 1.2.5.3 1.2.4 2.1.4 1.3 0 2.4-.2 3.1-.5s1.1-.9 1.1-1.5c0-.5-.2-.9-.7-1.1-.4-.2-1.1-.3-2.1-.3h-1.9c-.7 0-1.3.2-1.7.5-.4.4-.6.8-.6 1.3zm1.3-11.1c0 .7.2 1.3.5 1.8.3.4.9.6 1.5.6.7 0 1.2-.2 1.5-.6.3-.4.5-1 .5-1.8 0-1.6-.7-2.5-2-2.5-1.3.1-2 .9-2 2.5z"/></g><g><path data-cppathid="10012" d="M509.9 130.8v-8.6h1.4v7.4h3.6v1.2h-5zM524 126.5c0 1.4-.3 2.5-1 3.3s-1.7 1.2-3 1.2-2.3-.4-3-1.2-1-1.9-1-3.3.3-2.5 1-3.3 1.7-1.1 3-1.1 2.3.4 3 1.2 1 1.8 1 3.2zm-6.5 0c0 1.1.2 1.9.6 2.4s1.1.8 1.9.8c.8 0 1.5-.3 1.9-.8s.6-1.3.6-2.4c0-1.1-.2-1.8-.6-2.4s-1-.8-1.9-.8c-.8 0-1.5.3-1.9.8s-.6 1.3-.6 2.4zM529.3 126.1h3.2v4.3c-.5.2-1 .3-1.5.4s-1 .1-1.5.1c-1.3 0-2.3-.4-3-1.2s-1.1-1.9-1.1-3.2c0-1.4.4-2.5 1.2-3.2s1.9-1.2 3.3-1.2c.9 0 1.7.2 2.5.5l-.5 1.2c-.7-.3-1.4-.5-2.1-.5-.9 0-1.6.3-2.2.9s-.8 1.4-.8 2.4.2 1.8.7 2.4 1.2.8 2.1.8c.5 0 .9-.1 1.5-.2v-2.2h-1.8v-1.3zM542.2 126.5c0 1.4-.3 2.5-1 3.3s-1.7 1.2-3 1.2-2.3-.4-3-1.2-1-1.9-1-3.3.3-2.5 1-3.3 1.7-1.1 3-1.1 2.3.4 3 1.2 1 1.8 1 3.2zm-6.6 0c0 1.1.2 1.9.6 2.4s1.1.8 1.9.8c.8 0 1.5-.3 1.9-.8s.6-1.3.6-2.4c0-1.1-.2-1.8-.6-2.4s-1-.8-1.9-.8c-.8 0-1.5.3-1.9.8s-.6 1.3-.6 2.4z"/></g><g><path data-cppathid="10013" d="M690 131h-1.3v-3.5h-3.6v3.5h-1.3v-7.9h1.3v3.2h3.6v-3.2h1.3v7.9zM699 127.1c0 1.3-.3 2.3-1 3-.6.7-1.5 1.1-2.7 1.1-1.2 0-2.1-.4-2.7-1.1-.6-.7-1-1.7-1-3s.3-2.3 1-3c.6-.7 1.6-1 2.7-1 1.2 0 2.1.4 2.7 1.1.7.6 1 1.6 1 2.9zm-6 0c0 1 .2 1.7.6 2.2.4.5 1 .7 1.7.7.8 0 1.3-.2 1.7-.7s.6-1.2.6-2.2c0-1-.2-1.7-.6-2.2s-1-.7-1.7-.7c-.8 0-1.4.2-1.7.7-.4.5-.6 1.2-.6 2.2zM704.1 131l-2.3-6.6c.1 1 .1 1.9.1 2.7v3.8h-1.2V123h1.8l2.2 6.2 2.2-6.2h1.8v7.9h-1.2v-5.4c0-.6 0-1 .1-1.1l-2.4 6.5h-1.1zM715.3 131h-4.4v-7.9h4.4v1.1h-3.2v2.1h3v1.1h-3v2.5h3.2v1.1z"/></g><g><path data-cppathid="10014" d="M733.8 131v-7.9h1.3v6.8h3.3v1.1h-4.6zM746.7 127.1c0 1.3-.3 2.3-1 3-.6.7-1.5 1.1-2.7 1.1-1.2 0-2.1-.4-2.7-1.1-.6-.7-1-1.7-1-3s.3-2.3 1-3c.6-.7 1.6-1 2.7-1 1.2 0 2.1.4 2.7 1.1.7.6 1 1.6 1 2.9zm-6 0c0 1 .2 1.7.6 2.2.4.5 1 .7 1.7.7.8 0 1.3-.2 1.7-.7s.6-1.2.6-2.2c0-1-.2-1.7-.6-2.2s-1-.7-1.7-.7c-.8 0-1.4.2-1.7.7-.4.5-.6 1.2-.6 2.2zM751.6 126.8h2.9v3.9c-.5.2-.9.3-1.4.3-.4.1-.9.1-1.4.1-1.2 0-2.1-.4-2.8-1.1-.6-.7-1-1.7-1-3s.4-2.3 1.1-3c.7-.7 1.7-1.1 3-1.1.8 0 1.6.2 2.3.5l-.5 1.1c-.6-.3-1.3-.4-1.9-.4-.8 0-1.5.3-2 .8s-.7 1.2-.7 2.2c0 1 .2 1.7.7 2.2.4.5 1.1.7 1.9.7.4 0 .9-.1 1.3-.2v-2h-1.6v-1zM756.4 131v-7.9h1.3v7.9h-1.3zM766.3 131h-1.6l-3.9-6.3v.3c0 .7.1 1.3.1 1.8v4.1h-1.2V123h1.6l3.9 6.2V123h1.2v8z"/></g><g><path data-cppathid="10015" d="m584.4 193.3-3.3-9.5h-.1c.1 1.4.1 2.7.1 4v5.6h-1.7V182h2.6l3.2 9.1 3.3-9.1h2.6v11.4h-1.8v-7.8c0-.9.1-1.5.1-1.7h-.1l-3.4 9.5h-1.5zM593.9 182.4c0-.3.1-.6.3-.8.2-.2.4-.3.8-.3.3 0 .6.1.8.3.2.2.3.4.3.8 0 .3-.1.6-.3.7s-.4.3-.8.3c-.3 0-.6-.1-.8-.3s-.3-.4-.3-.7zm2 10.9H594v-8.6h1.8v8.6zM601.7 192c.4 0 .9-.1 1.3-.2v1.4c-.2.1-.5.2-.8.2-.3.1-.7.1-1 .1-1.7 0-2.6-.9-2.6-2.8V186h-1.2v-.8l1.3-.7.6-1.8h1.1v1.9h2.5v1.4h-2.5v4.6c0 .4.1.8.3 1s.6.4 1 .4zM612.1 184.7v1l-1.5.3c.1.2.2.4.3.7s.1.5.1.8c0 .9-.3 1.6-.9 2.1-.6.5-1.5.8-2.5.8-.3 0-.5 0-.8-.1-.4.2-.6.5-.6.9 0 .2.1.3.3.4.2.1.5.1 1 .1h1.5c1 0 1.7.2 2.2.6s.7 1 .7 1.8c0 1-.4 1.7-1.2 2.3s-2 .8-3.5.8c-1.2 0-2.1-.2-2.7-.6-.6-.4-.9-1-.9-1.8 0-.5.2-1 .5-1.3s.8-.6 1.4-.8c-.2-.1-.4-.3-.6-.5-.2-.2-.2-.5-.2-.7 0-.3.1-.6.3-.8.2-.2.5-.4.8-.7-.4-.2-.8-.5-1.1-.9-.3-.4-.4-.9-.4-1.5 0-.9.3-1.7.9-2.2s1.4-.8 2.5-.8c.2 0 .5 0 .8.1.3 0 .5.1.6.1h3zm-6.8 10c0 .4.2.7.5.9.4.2.9.3 1.5.3 1 0 1.7-.1 2.2-.4.5-.3.7-.7.7-1.1 0-.4-.1-.6-.4-.8-.3-.2-.8-.2-1.5-.2H607c-.5 0-.9.1-1.3.4-.3.1-.4.4-.4.9zm.8-7.2c0 .5.1 1 .4 1.2.3.3.7.4 1.2.4 1.1 0 1.6-.6 1.6-1.7 0-.6-.1-1-.4-1.3s-.7-.5-1.2-.5-.9.2-1.2.5c-.3.4-.4.8-.4 1.4zM615.5 193.3h-1.8v-12.2h1.8v12.2zM618 182.4c0-.3.1-.6.3-.8.2-.2.4-.3.8-.3.3 0 .6.1.8.3.2.2.3.4.3.8 0 .3-.1.6-.3.7s-.4.3-.8.3c-.3 0-.6-.1-.8-.3s-.3-.4-.3-.7zm2 10.9h-1.8v-8.6h1.8v8.6zM626.4 193.5c-1.3 0-2.4-.4-3.2-1.2-.8-.8-1.1-1.9-1.1-3.2 0-1.4.4-2.5 1.1-3.3.7-.8 1.7-1.2 2.9-1.2 1.1 0 2 .3 2.7 1 .7.7 1 1.6 1 2.9v1H624c0 .8.3 1.5.7 1.9.4.5 1 .7 1.8.7.5 0 1 0 1.4-.1.4-.1.9-.3 1.4-.5v1.5c-.4.2-.9.4-1.4.5s-.9 0-1.5 0zm-.4-7.6c-.6 0-1.1.2-1.4.6-.4.4-.6.9-.6 1.6h3.9c0-.7-.2-1.3-.5-1.6s-.8-.6-1.4-.6zM634.7 193.5c-1.1 0-1.9-.4-2.5-1.2s-.9-1.9-.9-3.3.3-2.5.9-3.3 1.5-1.2 2.5-1.2c1.1 0 2 .4 2.6 1.3h.1c-.1-.6-.1-1.1-.1-1.5v-3.1h1.8v12.2h-1.4l-.3-1.1h-.1c-.6.8-1.4 1.2-2.6 1.2zm.5-1.5c.8 0 1.3-.2 1.6-.6.3-.4.5-1.1.5-2.1v-.3c0-1.1-.2-1.9-.5-2.3-.4-.5-.9-.7-1.7-.7-.6 0-1.1.3-1.5.8s-.5 1.3-.5 2.2c0 1 .2 1.7.5 2.2.4.5.9.8 1.6.8zM645.6 193.5c-1.3 0-2.4-.4-3.2-1.2-.8-.8-1.1-1.9-1.1-3.2 0-1.4.4-2.5 1.1-3.3.7-.8 1.7-1.2 2.9-1.2 1.1 0 2 .3 2.7 1 .7.7 1 1.6 1 2.9v1h-5.8c0 .8.3 1.5.7 1.9.4.5 1 .7 1.8.7.5 0 1 0 1.4-.1.4-.1.9-.3 1.4-.5v1.5c-.4.2-.9.4-1.4.5s-1 0-1.5 0zm-.4-7.6c-.6 0-1.1.2-1.4.6-.4.4-.6.9-.6 1.6h3.9c0-.7-.2-1.3-.5-1.6s-.8-.6-1.4-.6zM655.4 184.5c.4 0 .7 0 .9.1l-.2 1.7c-.3-.1-.5-.1-.8-.1-.7 0-1.3.2-1.8.7-.5.5-.7 1.1-.7 1.9v4.5H651v-8.6h1.4l.2 1.5h.1c.3-.5.7-.9 1.1-1.2.6-.3 1-.5 1.6-.5zM663.7 190.9c0 .8-.3 1.5-.9 1.9-.6.5-1.5.7-2.6.7-1.2 0-2.1-.2-2.8-.5v-1.6c1 .5 2 .7 2.8.7 1.1 0 1.7-.3 1.7-1 0-.2-.1-.4-.2-.5-.1-.1-.3-.3-.6-.5s-.7-.3-1.2-.5c-1-.4-1.7-.8-2-1.2-.4-.4-.5-.9-.5-1.5 0-.7.3-1.3.9-1.7.6-.4 1.4-.6 2.4-.6s2 .2 2.9.6l-.6 1.4c-.9-.4-1.7-.6-2.4-.6-1 0-1.5.3-1.5.8 0 .3.1.5.4.7s.8.4 1.7.8c.7.3 1.2.5 1.6.8.3.2.6.5.7.8.1.2.2.5.2 1zM669.5 193.5c-1.3 0-2.4-.4-3.2-1.2-.8-.8-1.1-1.9-1.1-3.2 0-1.4.4-2.5 1.1-3.3.7-.8 1.7-1.2 2.9-1.2 1.1 0 2 .3 2.7 1 .7.7 1 1.6 1 2.9v1h-5.8c0 .8.3 1.5.7 1.9.4.5 1 .7 1.8.7.5 0 1 0 1.4-.1.4-.1.9-.3 1.4-.5v1.5c-.4.2-.9.4-1.4.5s-1 0-1.5 0zm-.4-7.6c-.6 0-1.1.2-1.4.6-.4.4-.6.9-.6 1.6h3.9c0-.7-.2-1.3-.5-1.6s-.8-.6-1.4-.6zM674.8 182.4c0-.3.1-.6.3-.8.2-.2.4-.3.8-.3.3 0 .6.1.8.3.2.2.3.4.3.8 0 .3-.1.6-.3.7s-.4.3-.8.3c-.3 0-.6-.1-.8-.3s-.3-.4-.3-.7zm1.9 10.9h-1.8v-8.6h1.8v8.6zM682.6 192c.4 0 .9-.1 1.3-.2v1.4c-.2.1-.5.2-.8.2-.3.1-.7.1-1 .1-1.7 0-2.6-.9-2.6-2.8V186h-1.2v-.8l1.3-.7.6-1.8h1.1v1.9h2.5v1.4h-2.5v4.6c0 .4.1.8.3 1s.6.4 1 .4zM689.4 193.5c-1.3 0-2.4-.4-3.2-1.2-.8-.8-1.1-1.9-1.1-3.2 0-1.4.4-2.5 1.1-3.3.7-.8 1.7-1.2 2.9-1.2 1.1 0 2 .3 2.7 1 .7.7 1 1.6 1 2.9v1H687c0 .8.3 1.5.7 1.9.4.5 1 .7 1.8.7.5 0 1 0 1.4-.1.4-.1.9-.3 1.4-.5v1.5c-.4.2-.9.4-1.4.5s-.9 0-1.5 0zm-.3-7.6c-.6 0-1.1.2-1.4.6-.4.4-.6.9-.6 1.6h3.9c0-.7-.2-1.3-.5-1.6s-.8-.6-1.4-.6z"/></g><path data-cppathid="10016" d="M60.6 105h300v300h-300z" class="st6" id="Hintergrund_00000085970551716384084210000015585314953151776926_"/><path data-cppathid="10017" d="M234.6 371h-47.9c-11.6 0-21-9.4-21-21s9.4-21 21-21h47.9c11.6 0 21 9.4 21 21s-9.4 21-21 21z" class="st10"/><path data-cppathid="10018" d="M61.7 145.5h297.9v84H61.7z" style="fill:#44b9e2"/><g><path data-cppathid="10019" d="M124.3 40.4h4.6l-7.3 21.4h-5l-7.3-21.4h4.6l4 12.7c.2.8.5 1.6.7 2.6.2 1 .4 1.7.4 2.1.1-.9.5-2.5 1.1-4.7l4.2-12.7zM138.6 62.1c-2.6 0-4.7-.7-6.2-2.2s-2.2-3.5-2.2-6.2.7-4.9 2.1-6.4 3.3-2.2 5.7-2.2c2.3 0 4.1.7 5.4 2s1.9 3.1 1.9 5.5v2.2h-10.6c0 1.3.4 2.3 1.1 3s1.7 1.1 3 1.1c1 0 1.9-.1 2.8-.3s1.8-.5 2.8-1v3.5c-.8.4-1.6.7-2.5.9-.9 0-2 .1-3.3.1zm-.6-13.8c-.9 0-1.7.3-2.2.9-.5.6-.8 1.5-.9 2.6h6.3c0-1.1-.3-2-.9-2.6-.6-.6-1.4-.9-2.3-.9zM158.1 45.1c.6 0 1.1 0 1.5.1l-.3 4.2c-.4-.1-.8-.1-1.3-.1-1.4 0-2.5.4-3.3 1.1s-1.2 1.8-1.2 3.1v8.3H149V45.4h3.4l.7 2.8h.2c.5-.9 1.2-1.7 2.1-2.2s1.6-.9 2.7-.9zM166.8 52.9l1.9-2.5 4.6-5h5l-6.5 7.1 6.9 9.3h-5.2l-4.7-6.6-1.9 1.5v5.1h-4.5V39h4.5v10.2l-.1 3.7zM191.5 61.8l-.9-2.2h-.1c-.8.9-1.5 1.6-2.3 2-.8.4-1.8.5-3.1.5-1.6 0-2.8-.4-3.7-1.3S180 58.6 180 57c0-1.7.6-3 1.8-3.8 1.2-.8 3-1.3 5.5-1.4l2.8-.1V51c0-1.7-.8-2.5-2.5-2.5-1.3 0-2.8.4-4.6 1.2l-1.5-3c1.9-1 4-1.5 6.3-1.5 2.2 0 3.9.5 5.1 1.4s1.8 2.4 1.8 4.4v10.9h-3.2zm-1.3-7.6-1.7.1c-1.3 0-2.3.3-2.9.7s-1 1.1-1 2c0 1.3.7 1.9 2.2 1.9 1 0 1.9-.3 2.5-.9s.9-1.4.9-2.4v-1.4zM210.9 61.8l-.6-2.1h-.3c-.5.8-1.2 1.4-2 1.8-.9.4-1.9.6-3 .6-1.9 0-3.4-.5-4.4-1.5s-1.5-2.5-1.5-4.4V45.4h4.5V55c0 1.2.2 2.1.6 2.7s1.1.9 2 .9c1.2 0 2.2-.4 2.7-1.3.6-.8.8-2.2.8-4.2v-7.7h4.5v16.4h-3.3zM228 48.8h-3.9v13h-4.5v-13h-2.5v-2.2l2.5-1.2v-1.2c0-1.9.5-3.2 1.4-4.1s2.4-1.3 4.4-1.3c1.5 0 2.9.2 4.1.7l-1.1 3.3c-.9-.3-1.7-.4-2.5-.4-.6 0-1.1.2-1.4.6-.3.4-.4.9-.4 1.4v1h3.9v3.4zM242 56.9c0 1.7-.6 3-1.8 3.8S237.3 62 235 62c-1.2 0-2.2-.1-3-.2-.8-.2-1.6-.4-2.4-.7v-3.7c.8.4 1.8.7 2.8 1s2 .4 2.7.4c1.6 0 2.4-.5 2.4-1.4 0-.4-.1-.6-.3-.9-.2-.2-.6-.5-1.1-.7-.5-.3-1.2-.6-2.1-1-1.3-.5-2.2-1-2.8-1.5s-1-1-1.3-1.5c-.3-.6-.4-1.3-.4-2.1 0-1.5.6-2.6 1.7-3.4s2.7-1.2 4.8-1.2c2 0 3.9.4 5.8 1.3l-1.3 3.2c-.8-.4-1.6-.6-2.3-.9s-1.4-.3-2.2-.3c-1.3 0-2 .4-2 1.1 0 .4.2.7.6 1s1.4.7 2.8 1.3c1.3.5 2.2 1 2.8 1.5s1 1 1.3 1.6.5 1.2.5 2zM256.9 56.9c0 1.7-.6 3-1.8 3.8s-2.9 1.3-5.2 1.3c-1.2 0-2.2-.1-3-.2-.8-.2-1.6-.4-2.4-.7v-3.7c.8.4 1.8.7 2.8 1s2 .4 2.7.4c1.6 0 2.4-.5 2.4-1.4 0-.4-.1-.6-.3-.9-.2-.2-.6-.5-1.1-.7-.5-.3-1.2-.6-2.1-1-1.3-.5-2.2-1-2.8-1.5s-1-1-1.3-1.5c-.3-.6-.4-1.3-.4-2.1 0-1.5.6-2.6 1.7-3.4s2.7-1.2 4.8-1.2c2 0 3.9.4 5.8 1.3l-1.3 3.2c-.8-.4-1.6-.6-2.3-.9s-1.4-.3-2.2-.3c-1.3 0-2 .4-2 1.1 0 .4.2.7.6 1s1.4.7 2.8 1.3c1.3.5 2.2 1 2.8 1.5s1 1 1.3 1.6.5 1.2.5 2zM267.8 62.1c-2.6 0-4.7-.7-6.2-2.2s-2.2-3.5-2.2-6.2.7-4.9 2.1-6.4 3.3-2.2 5.7-2.2c2.3 0 4.1.7 5.4 2s1.9 3.1 1.9 5.5v2.2h-10.6c0 1.3.4 2.3 1.1 3s1.7 1.1 3 1.1c1 0 1.9-.1 2.8-.3s1.8-.5 2.8-1v3.5c-.8.4-1.6.7-2.5.9-.9 0-2 .1-3.3.1zm-.6-13.8c-.9 0-1.7.3-2.2.9-.5.6-.8 1.5-.9 2.6h6.3c0-1.1-.3-2-.9-2.6-.6-.6-1.4-.9-2.3-.9zM278 41.2c0-1.5.8-2.2 2.4-2.2s2.4.7 2.4 2.2c0 .7-.2 1.2-.6 1.6-.4.4-1 .6-1.8.6-1.6 0-2.4-.7-2.4-2.2zm4.6 20.6h-4.5V45.4h4.5v16.4zM294.2 58.5c.8 0 1.7-.2 2.8-.5v3.3c-1.1.5-2.5.7-4.1.7-1.8 0-3.1-.5-3.9-1.4-.8-.9-1.2-2.3-1.2-4.1v-7.9h-2.1v-1.9l2.5-1.5 1.3-3.5h2.9v3.5h4.6v3.4h-4.6v7.9c0 .6.2 1.1.5 1.4s.7.6 1.3.6zM307.7 62.1c-2.6 0-4.7-.7-6.2-2.2s-2.2-3.5-2.2-6.2.7-4.9 2.1-6.4 3.3-2.2 5.7-2.2c2.3 0 4.1.7 5.4 2s1.9 3.1 1.9 5.5v2.2h-10.6c0 1.3.4 2.3 1.1 3s1.7 1.1 3 1.1c1 0 1.9-.1 2.8-.3s1.8-.5 2.8-1v3.5c-.8.4-1.6.7-2.5.9-.9 0-2 .1-3.3.1zm-.6-13.8c-.9 0-1.7.3-2.2.9-.5.6-.8 1.5-.9 2.6h6.3c0-1.1-.3-2-.9-2.6-.6-.6-1.4-.9-2.3-.9zM135 91.8V74h3.8v14.7h7.2v3.1h-11zM157.5 91.8l-.7-1.9h-.1c-.6.8-1.3 1.3-1.9 1.6-.7.3-1.5.5-2.6.5-1.3 0-2.3-.4-3.1-1.1-.8-.7-1.1-1.8-1.1-3.2 0-1.4.5-2.5 1.5-3.2 1-.7 2.5-1.1 4.6-1.1l2.4-.1v-.6c0-1.4-.7-2.1-2.1-2.1-1.1 0-2.4.3-3.8 1l-1.2-2.5c1.6-.8 3.3-1.2 5.2-1.2 1.8 0 3.2.4 4.2 1.2 1 .8 1.5 2 1.5 3.6v9.1h-2.8zm-1.1-6.3H155c-1.1 0-1.9.2-2.4.6-.5.4-.8.9-.8 1.6 0 1 .6 1.6 1.8 1.6.9 0 1.6-.2 2.1-.7.5-.5.8-1.2.8-2v-1.1zM176.6 91.8h-3.7v-8c0-1-.2-1.7-.5-2.2-.4-.5-.9-.7-1.7-.7-1 0-1.8.3-2.3 1-.5.7-.7 1.8-.7 3.5v6.4H164V78.2h2.8l.5 1.7h.2c.4-.7 1-1.2 1.7-1.5.7-.3 1.6-.5 2.5-.5 1.6 0 2.8.4 3.6 1.3.8.9 1.2 2.1 1.2 3.7v8.9zM184.7 92c-1.6 0-2.9-.6-3.8-1.9-.9-1.2-1.4-3-1.4-5.2s.5-4 1.4-5.2c.9-1.2 2.2-1.9 3.9-1.9 1.7 0 3 .7 3.9 2h.1c-.2-1-.3-1.9-.3-2.7v-4.4h3.7v19h-2.9l-.7-1.8h-.2c-.7 1.5-2 2.1-3.7 2.1zm1.3-2.9c1 0 1.6-.3 2.1-.8.4-.6.7-1.5.7-2.8V85c0-1.5-.2-2.5-.7-3.1-.5-.6-1.2-1-2.2-1-.8 0-1.5.4-1.9 1.1-.5.7-.7 1.7-.7 3.1 0 1.3.2 2.3.7 3 .5.6 1.2 1 2 1zM196.1 74.6c0-1.2.7-1.8 2-1.8 1.4 0 2 .6 2 1.8 0 .6-.2 1-.5 1.3-.3.3-.8.5-1.5.5-1.4.1-2-.6-2-1.8zm3.8 17.2h-3.7V78.2h3.7v13.6zM216.4 91.8h-3.7v-8c0-1-.2-1.7-.5-2.2-.4-.5-.9-.7-1.7-.7-1 0-1.8.3-2.3 1-.5.7-.7 1.8-.7 3.5v6.4h-3.7V78.2h2.8l.5 1.7h.2c.4-.7 1-1.2 1.7-1.5.7-.3 1.6-.5 2.5-.5 1.6 0 2.8.4 3.6 1.3.8.9 1.2 2.1 1.2 3.7v8.9zM232.2 78.2V80l-2.1.5c.4.6.6 1.3.6 2.1 0 1.5-.5 2.6-1.5 3.4-1 .8-2.4 1.2-4.3 1.2h-.7l-.5-.1c-.4.3-.6.6-.6 1 0 .5.7.8 2.1.8h2.3c1.5 0 2.6.3 3.4 1 .8.6 1.2 1.6 1.2 2.8 0 1.6-.7 2.8-2 3.7-1.3.9-3.2 1.3-5.7 1.3-1.9 0-3.4-.3-4.4-1-1-.7-1.5-1.6-1.5-2.8 0-.8.3-1.5.8-2.1.5-.6 1.3-.9 2.3-1.2-.4-.2-.7-.4-1-.8-.3-.4-.4-.8-.4-1.2 0-.5.2-1 .5-1.3.3-.3.7-.7 1.3-1-.7-.3-1.3-.8-1.7-1.5-.4-.7-.6-1.5-.6-2.4 0-1.5.5-2.6 1.5-3.5 1-.8 2.4-1.2 4.2-1.2.4 0 .8 0 1.4.1.5.1.9.1 1 .2h4.4zm-10.6 15.5c0 .5.2.9.7 1.2.5.3 1.2.4 2.1.4 1.3 0 2.4-.2 3.1-.5s1.1-.9 1.1-1.5c0-.5-.2-.9-.7-1.1-.4-.2-1.1-.3-2.1-.3H224c-.7 0-1.3.2-1.7.5-.5.4-.7.8-.7 1.3zm1.4-11.1c0 .7.2 1.3.5 1.8.3.4.9.6 1.5.6.7 0 1.2-.2 1.5-.6.3-.4.5-1 .5-1.8 0-1.6-.7-2.5-2-2.5-1.3.1-2 .9-2 2.5zM241.9 92c-1.6 0-2.9-.6-3.8-1.7h-.2c.1 1.1.2 1.8.2 2v5.5h-3.7V78.2h3l.5 1.8h.2c.9-1.4 2.2-2 3.9-2 1.6 0 2.9.6 3.8 1.9.9 1.2 1.4 3 1.4 5.2 0 1.5-.2 2.7-.6 3.8-.4 1.1-1 1.9-1.8 2.5-.9.4-1.8.6-2.9.6zm-1.1-11.1c-.9 0-1.6.3-2 .8-.4.6-.6 1.5-.7 2.8v.4c0 1.5.2 2.5.7 3.2.4.6 1.1 1 2.1 1 1.7 0 2.5-1.4 2.5-4.1 0-1.3-.2-2.4-.6-3-.5-.8-1.1-1.1-2-1.1zM258.9 91.8l-.7-1.9h-.1c-.6.8-1.3 1.3-1.9 1.6-.7.3-1.5.5-2.6.5-1.3 0-2.3-.4-3.1-1.1-.8-.7-1.1-1.8-1.1-3.2 0-1.4.5-2.5 1.5-3.2 1-.7 2.5-1.1 4.6-1.1l2.4-.1v-.6c0-1.4-.7-2.1-2.1-2.1-1.1 0-2.4.3-3.8 1l-1.2-2.5c1.6-.8 3.3-1.2 5.2-1.2 1.8 0 3.2.4 4.2 1.2 1 .8 1.5 2 1.5 3.6v9.1h-2.8zm-1.1-6.3h-1.4c-1.1 0-1.9.2-2.4.6-.5.4-.8.9-.8 1.6 0 1 .6 1.6 1.8 1.6.9 0 1.6-.2 2.1-.7.5-.5.8-1.2.8-2v-1.1zM277.2 78.2V80l-2.1.5c.4.6.6 1.3.6 2.1 0 1.5-.5 2.6-1.5 3.4-1 .8-2.4 1.2-4.3 1.2h-.7l-.5-.1c-.4.3-.6.6-.6 1 0 .5.7.8 2.1.8h2.3c1.5 0 2.6.3 3.4 1 .8.6 1.2 1.6 1.2 2.8 0 1.6-.7 2.8-2 3.7-1.3.9-3.2 1.3-5.7 1.3-1.9 0-3.4-.3-4.4-1-1-.7-1.5-1.6-1.5-2.8 0-.8.3-1.5.8-2.1.5-.6 1.3-.9 2.3-1.2-.4-.2-.7-.4-1-.8-.3-.4-.4-.8-.4-1.2 0-.5.2-1 .5-1.3.3-.3.7-.7 1.3-1-.7-.3-1.3-.8-1.7-1.5-.4-.7-.6-1.5-.6-2.4 0-1.5.5-2.6 1.5-3.5 1-.8 2.4-1.2 4.2-1.2.4 0 .8 0 1.4.1.5.1.9.1 1 .2h4.4zm-10.5 15.5c0 .5.2.9.7 1.2.5.3 1.2.4 2.1.4 1.3 0 2.4-.2 3.1-.5s1.1-.9 1.1-1.5c0-.5-.2-.9-.7-1.1-.4-.2-1.1-.3-2.1-.3H269c-.7 0-1.3.2-1.7.5-.4.4-.6.8-.6 1.3zm1.3-11.1c0 .7.2 1.3.5 1.8.3.4.9.6 1.5.6.7 0 1.2-.2 1.5-.6.3-.4.5-1 .5-1.8 0-1.6-.7-2.5-2-2.5-1.3.1-2 .9-2 2.5zM285.6 92c-2.2 0-3.9-.6-5.2-1.8-1.2-1.2-1.9-2.9-1.9-5.2 0-2.3.6-4.1 1.7-5.3 1.1-1.2 2.7-1.9 4.7-1.9 1.9 0 3.4.5 4.5 1.6S291 82 291 84v1.8h-8.8c0 1.1.4 1.9.9 2.5s1.4.9 2.5.9c.8 0 1.6-.1 2.3-.3s1.5-.4 2.3-.8V91c-.7.3-1.3.6-2.1.7-.5.3-1.4.3-2.5.3zm-.5-11.5c-.8 0-1.4.2-1.9.8-.4.5-.7 1.2-.8 2.1h5.2c0-.9-.3-1.6-.7-2.1-.4-.5-1-.8-1.8-.8z"/></g><g><path data-cppathid="10020" d="M84.5 130.8v-8.6h1.4v7.4h3.6v1.2h-5zM98.6 126.5c0 1.4-.3 2.5-1 3.3s-1.7 1.2-3 1.2-2.3-.4-3-1.2-1-1.9-1-3.3.3-2.5 1-3.3 1.7-1.1 3-1.1 2.3.4 3 1.2 1 1.8 1 3.2zm-6.5 0c0 1.1.2 1.9.6 2.4s1.1.8 1.9.8c.8 0 1.5-.3 1.9-.8s.6-1.3.6-2.4c0-1.1-.2-1.8-.6-2.4s-1-.8-1.9-.8c-.8 0-1.5.3-1.9.8s-.6 1.3-.6 2.4zM103.9 126.1h3.2v4.3c-.5.2-1 .3-1.5.4s-1 .1-1.5.1c-1.3 0-2.3-.4-3-1.2s-1.1-1.9-1.1-3.2c0-1.4.4-2.5 1.2-3.2s1.9-1.2 3.3-1.2c.9 0 1.7.2 2.5.5l-.5 1.2c-.7-.3-1.4-.5-2.1-.5-.9 0-1.6.3-2.2.9s-.8 1.4-.8 2.4.2 1.8.7 2.4 1.2.8 2.1.8c.5 0 .9-.1 1.5-.2v-2.2h-1.8v-1.3zM116.8 126.5c0 1.4-.3 2.5-1 3.3s-1.7 1.2-3 1.2-2.3-.4-3-1.2-1-1.9-1-3.3.3-2.5 1-3.3 1.7-1.1 3-1.1 2.3.4 3 1.2 1 1.8 1 3.2zm-6.6 0c0 1.1.2 1.9.6 2.4s1.1.8 1.9.8c.8 0 1.5-.3 1.9-.8s.6-1.3.6-2.4c0-1.1-.2-1.8-.6-2.4s-1-.8-1.9-.8c-.8 0-1.5.3-1.9.8s-.6 1.3-.6 2.4z"/></g><g><path data-cppathid="10021" d="M264.6 131h-1.3v-3.5h-3.6v3.5h-1.3v-7.9h1.3v3.2h3.6v-3.2h1.3v7.9zM273.6 127.1c0 1.3-.3 2.3-1 3-.6.7-1.5 1.1-2.7 1.1-1.2 0-2.1-.4-2.7-1.1-.6-.7-1-1.7-1-3s.3-2.3 1-3c.6-.7 1.6-1 2.7-1 1.2 0 2.1.4 2.7 1.1.7.6 1 1.6 1 2.9zm-6 0c0 1 .2 1.7.6 2.2.4.5 1 .7 1.7.7.8 0 1.3-.2 1.7-.7s.6-1.2.6-2.2c0-1-.2-1.7-.6-2.2s-1-.7-1.7-.7c-.8 0-1.4.2-1.7.7-.4.5-.6 1.2-.6 2.2zM278.7 131l-2.3-6.6c.1 1 .1 1.9.1 2.7v3.8h-1.2V123h1.8l2.2 6.2 2.2-6.2h1.8v7.9h-1.2v-5.4c0-.6 0-1 .1-1.1l-2.4 6.5h-1.1zM289.9 131h-4.4v-7.9h4.4v1.1h-3.2v2.1h3v1.1h-3v2.5h3.2v1.1z"/></g><g><path data-cppathid="10022" d="M308.4 131v-7.9h1.3v6.8h3.3v1.1h-4.6zM321.3 127.1c0 1.3-.3 2.3-1 3-.6.7-1.5 1.1-2.7 1.1-1.2 0-2.1-.4-2.7-1.1-.6-.7-1-1.7-1-3s.3-2.3 1-3c.6-.7 1.6-1 2.7-1 1.2 0 2.1.4 2.7 1.1.7.6 1 1.6 1 2.9zm-6 0c0 1 .2 1.7.6 2.2.4.5 1 .7 1.7.7.8 0 1.3-.2 1.7-.7s.6-1.2.6-2.2c0-1-.2-1.7-.6-2.2s-1-.7-1.7-.7c-.8 0-1.4.2-1.7.7-.4.5-.6 1.2-.6 2.2zM326.2 126.8h2.9v3.9c-.5.2-.9.3-1.4.3-.4.1-.9.1-1.4.1-1.2 0-2.1-.4-2.8-1.1-.6-.7-1-1.7-1-3s.4-2.3 1.1-3c.7-.7 1.7-1.1 3-1.1.8 0 1.6.2 2.3.5l-.5 1.1c-.6-.3-1.3-.4-1.9-.4-.8 0-1.5.3-2 .8s-.7 1.2-.7 2.2c0 1 .2 1.7.7 2.2.4.5 1.1.7 1.9.7.4 0 .9-.1 1.3-.2v-2h-1.6v-1zM331 131v-7.9h1.3v7.9H331zM340.9 131h-1.6l-3.9-6.3v.3c0 .7.1 1.3.1 1.8v4.1h-1.2V123h1.6l3.9 6.2V123h1.2v8z"/></g><g><path data-cppathid="10023" d="M165.7 181.9h1.9l-4 11.4h-2l-4-11.4h1.9l2.4 7.1c.1.3.3.8.4 1.3.1.5.2.9.3 1.2.1-.4.2-.9.3-1.4.1-.5.3-.9.3-1.2l2.5-7zM172.8 193.5c-1.3 0-2.4-.4-3.2-1.2-.8-.8-1.1-1.9-1.1-3.2 0-1.4.4-2.5 1.1-3.3.7-.8 1.7-1.2 2.9-1.2 1.1 0 2 .3 2.7 1 .7.7 1 1.6 1 2.9v1h-5.8c0 .8.3 1.5.7 1.9.4.5 1 .7 1.8.7.5 0 1 0 1.4-.1.4-.1.9-.3 1.4-.5v1.5c-.4.2-.9.4-1.4.5s-.9 0-1.5 0zm-.4-7.6c-.6 0-1.1.2-1.4.6-.4.4-.6.9-.6 1.6h3.9c0-.7-.2-1.3-.5-1.6s-.8-.6-1.4-.6zM182.6 184.5c.4 0 .7 0 .9.1l-.2 1.7c-.3-.1-.5-.1-.8-.1-.7 0-1.3.2-1.8.7-.5.5-.7 1.1-.7 1.9v4.5h-1.8v-8.6h1.4l.2 1.5h.1c.3-.5.7-.9 1.1-1.2.6-.3 1.1-.5 1.6-.5zM186.9 188.8l1-1.3 2.6-2.8h2.1l-3.5 3.7 3.7 4.9h-2.2l-2.8-3.8-1 .8v3H185v-12.2h1.8v5.9l.1 1.8zM199.7 193.3l-.4-1.2h-.1c-.4.5-.8.9-1.3 1.1s-1 .3-1.6.3c-.8 0-1.5-.2-2-.7-.5-.5-.7-1.1-.7-1.9 0-.9.3-1.6 1-2s1.7-.7 3-.7h1.5v-.5c0-.6-.1-1-.4-1.2s-.7-.4-1.2-.4c-.4 0-.9.1-1.3.2s-.8.3-1.2.5l-.6-1.3 1.5-.6c.6-.1 1.1-.2 1.6-.2 1.1 0 1.9.2 2.5.7.6.5.8 1.2.8 2.3v5.8h-1.1zm-2.8-1.2c.7 0 1.2-.2 1.6-.6.4-.4.6-.9.6-1.6v-.8H198c-.9 0-1.5.2-1.9.4s-.6.7-.6 1.2c0 .4.1.7.3.9s.7.5 1.1.5zM209.6 193.3l-.3-1.1h-.1c-.3.4-.6.7-1.1.9s-1 .3-1.6.3c-1 0-1.8-.3-2.3-.8-.5-.5-.8-1.3-.8-2.4v-5.6h1.9v5.3c0 .7.1 1.2.4 1.5.3.3.7.5 1.3.5.8 0 1.3-.2 1.7-.7s.5-1.2.5-2.3v-4.3h1.8v8.6h-1.4zM218 186.1h-2.1v7.2h-1.8v-7.2h-1.4v-.9l1.4-.6v-.6c0-1 .2-1.8.7-2.3s1.2-.7 2.2-.7c.6 0 1.3.1 1.9.3l-.5 1.4c-.5-.1-.9-.2-1.3-.2s-.7.1-.9.4-.3.6-.3 1.2v.6h2.1v1.4zM225.3 190.9c0 .8-.3 1.5-.9 1.9-.6.5-1.5.7-2.6.7-1.2 0-2.1-.2-2.8-.5v-1.6c1 .5 2 .7 2.8.7 1.1 0 1.7-.3 1.7-1 0-.2-.1-.4-.2-.5-.1-.1-.3-.3-.6-.5s-.7-.3-1.2-.5c-1-.4-1.7-.8-2-1.2-.4-.4-.5-.9-.5-1.5 0-.7.3-1.3.9-1.7.6-.4 1.4-.6 2.4-.6s2 .2 2.9.6l-.6 1.4c-.9-.4-1.7-.6-2.4-.6-1 0-1.5.3-1.5.8 0 .3.1.5.4.7s.8.4 1.7.8c.7.3 1.2.5 1.6.8.3.2.6.5.7.8.1.2.2.5.2 1zM233.1 190.9c0 .8-.3 1.5-.9 1.9-.6.5-1.5.7-2.6.7-1.2 0-2.1-.2-2.8-.5v-1.6c1 .5 2 .7 2.8.7 1.1 0 1.7-.3 1.7-1 0-.2-.1-.4-.2-.5-.1-.1-.3-.3-.6-.5s-.7-.3-1.2-.5c-1-.4-1.7-.8-2-1.2-.4-.4-.5-.9-.5-1.5 0-.7.3-1.3.9-1.7.6-.4 1.4-.6 2.4-.6s2 .2 2.9.6l-.6 1.4c-.9-.4-1.7-.6-2.4-.6-1 0-1.5.3-1.5.8 0 .3.1.5.4.7s.8.4 1.7.8c.7.3 1.2.5 1.6.8.3.2.6.5.7.8.1.2.2.5.2 1zM238.9 193.5c-1.3 0-2.4-.4-3.2-1.2-.8-.8-1.1-1.9-1.1-3.2 0-1.4.4-2.5 1.1-3.3.7-.8 1.7-1.2 2.9-1.2 1.1 0 2 .3 2.7 1 .7.7 1 1.6 1 2.9v1h-5.8c0 .8.3 1.5.7 1.9.4.5 1 .7 1.8.7.5 0 1 0 1.4-.1.4-.1.9-.3 1.4-.5v1.5c-.4.2-.9.4-1.4.5s-1 0-1.5 0zm-.4-7.6c-.6 0-1.1.2-1.4.6-.4.4-.6.9-.6 1.6h3.9c0-.7-.2-1.3-.5-1.6s-.8-.6-1.4-.6zM244.2 182.4c0-.3.1-.6.3-.8.2-.2.4-.3.8-.3.3 0 .6.1.8.3.2.2.3.4.3.8 0 .3-.1.6-.3.7s-.4.3-.8.3c-.3 0-.6-.1-.8-.3s-.3-.4-.3-.7zm1.9 10.9h-1.8v-8.6h1.8v8.6zM252 192c.4 0 .9-.1 1.3-.2v1.4c-.2.1-.5.2-.8.2-.3.1-.7.1-1 .1-1.7 0-2.6-.9-2.6-2.8V186h-1.2v-.8l1.3-.7.6-1.8h1.1v1.9h2.5v1.4h-2.5v4.6c0 .4.1.8.3 1s.6.4 1 .4zM258.8 193.5c-1.3 0-2.4-.4-3.2-1.2-.8-.8-1.1-1.9-1.1-3.2 0-1.4.4-2.5 1.1-3.3.7-.8 1.7-1.2 2.9-1.2 1.1 0 2 .3 2.7 1 .7.7 1 1.6 1 2.9v1h-5.8c0 .8.3 1.5.7 1.9.4.5 1 .7 1.8.7.5 0 1 0 1.4-.1.4-.1.9-.3 1.4-.5v1.5c-.4.2-.9.4-1.4.5s-.9 0-1.5 0zm-.3-7.6c-.6 0-1.1.2-1.4.6-.4.4-.6.9-.6 1.6h3.9c0-.7-.2-1.3-.5-1.6s-.8-.6-1.4-.6z"/></g><path data-cppathid="10024" d="M911.5 104.8h300v300h-300z" class="st6" id="Hintergrund_00000183211118355560423470000012893184656801099944_"/><g><path data-cppathid="10025" d="M1012.9 61.5h-5.2l-5.6-9-1.9 1.4v7.6h-4.5V40.1h4.5v9.8l1.8-2.5 5.8-7.3h5l-7.5 9.5 7.6 11.9zM1026.8 61.5l-.6-2.1h-.2c-.5.8-1.2 1.4-2 1.8-.9.4-1.9.6-3 .6-1.9 0-3.4-.5-4.4-1.5s-1.5-2.5-1.5-4.4V45.2h4.5v9.6c0 1.2.2 2.1.6 2.7s1.1.9 2 .9c1.2 0 2.2-.4 2.7-1.3.6-.8.8-2.2.8-4.2v-7.7h4.5v16.4h-3.4zM1044.1 44.9c.6 0 1.1 0 1.5.1l-.3 4.2c-.4-.1-.8-.1-1.3-.1-1.4 0-2.5.4-3.3 1.1s-1.2 1.8-1.2 3.1v8.3h-4.5V45.2h3.4l.7 2.8h.2c.5-.9 1.2-1.7 2.1-2.2s1.7-.9 2.7-.9zM1060 56.7c0 1.7-.6 3-1.8 3.8s-2.9 1.3-5.2 1.3c-1.2 0-2.2-.1-3-.2-.8-.2-1.6-.4-2.4-.7v-3.7c.8.4 1.8.7 2.8 1s2 .4 2.7.4c1.6 0 2.4-.5 2.4-1.4 0-.4-.1-.6-.3-.9-.2-.2-.6-.5-1.1-.7-.5-.3-1.2-.6-2.1-1-1.3-.5-2.2-1-2.8-1.5s-1-1-1.3-1.5c-.3-.6-.4-1.3-.4-2.1 0-1.5.6-2.6 1.7-3.4s2.7-1.2 4.8-1.2c2 0 3.9.4 5.8 1.3l-1.3 3.2c-.8-.4-1.6-.6-2.3-.9s-1.4-.3-2.2-.3c-1.3 0-2 .4-2 1.1 0 .4.2.7.6 1s1.4.7 2.8 1.3c1.3.5 2.2 1 2.8 1.5s1 1 1.3 1.6.5 1.2.5 2zM1074.9 56.7c0 1.7-.6 3-1.8 3.8s-2.9 1.3-5.2 1.3c-1.2 0-2.2-.1-3-.2-.8-.2-1.6-.4-2.4-.7v-3.7c.8.4 1.8.7 2.8 1s2 .4 2.7.4c1.6 0 2.4-.5 2.4-1.4 0-.4-.1-.6-.3-.9-.2-.2-.6-.5-1.1-.7-.5-.3-1.2-.6-2.1-1-1.3-.5-2.2-1-2.8-1.5s-1-1-1.3-1.5c-.3-.6-.4-1.3-.4-2.1 0-1.5.6-2.6 1.7-3.4s2.7-1.2 4.8-1.2c2 0 3.9.4 5.8 1.3l-1.3 3.2c-.8-.4-1.6-.6-2.3-.9s-1.4-.3-2.2-.3c-1.3 0-2 .4-2 1.1 0 .4.2.7.6 1s1.4.7 2.8 1.3c1.3.5 2.2 1 2.8 1.5s1 1 1.3 1.6.5 1.2.5 2zM1085.8 61.8c-2.6 0-4.7-.7-6.2-2.2s-2.2-3.5-2.2-6.2.7-4.9 2.1-6.4 3.3-2.2 5.7-2.2c2.3 0 4.1.7 5.4 2s1.9 3.1 1.9 5.5v2.2h-10.6c0 1.3.4 2.3 1.1 3s1.7 1.1 3 1.1c1 0 1.9-.1 2.8-.3s1.8-.5 2.8-1v3.5c-.8.4-1.6.7-2.5.9-.9 0-2 .1-3.3.1zm-.6-13.8c-.9 0-1.7.3-2.2.9-.5.6-.8 1.5-.9 2.6h6.3c0-1.1-.3-2-.9-2.6-.6-.6-1.4-.9-2.3-.9zM1095.9 40.9c0-1.5.8-2.2 2.4-2.2s2.4.7 2.4 2.2c0 .7-.2 1.2-.6 1.6-.4.4-1 .6-1.8.6-1.5 0-2.4-.7-2.4-2.2zm4.7 20.6h-4.5V45.2h4.5v16.3zM1112.2 58.3c.8 0 1.7-.2 2.8-.5v3.3c-1.1.5-2.5.7-4.1.7-1.8 0-3.1-.5-3.9-1.4-.8-.9-1.2-2.3-1.2-4.1v-7.9h-2.1v-1.9l2.5-1.5 1.3-3.5h2.9V45h4.6v3.4h-4.6v7.9c0 .6.2 1.1.5 1.4s.7.6 1.3.6zM1125.7 61.8c-2.6 0-4.7-.7-6.2-2.2s-2.2-3.5-2.2-6.2.7-4.9 2.1-6.4 3.3-2.2 5.7-2.2c2.3 0 4.1.7 5.4 2s1.9 3.1 1.9 5.5v2.2h-10.6c0 1.3.4 2.3 1.1 3s1.7 1.1 3 1.1c1 0 1.9-.1 2.8-.3s1.8-.5 2.8-1v3.5c-.8.4-1.6.7-2.5.9-.9 0-2 .1-3.3.1zm-.6-13.8c-.9 0-1.7.3-2.2.9-.5.6-.8 1.5-.9 2.6h6.3c0-1.1-.3-2-.9-2.6-.6-.6-1.4-.9-2.3-.9zM979.7 73.7h3.8l-6.1 17.8h-4.1l-6.1-17.8h3.8l3.4 10.6c.2.6.4 1.4.6 2.2s.3 1.4.4 1.7c.1-.7.4-2.1.9-3.9l3.4-10.6zM985.4 74.4c0-1.2.7-1.8 2-1.8s2 .6 2 1.8c0 .6-.2 1-.5 1.3-.3.3-.8.5-1.5.5-1.4 0-2-.6-2-1.8zm3.8 17.1h-3.7V77.9h3.7v13.6zM997.5 91.8c-1.6 0-2.9-.6-3.8-1.9-.9-1.2-1.4-3-1.4-5.2s.5-4 1.4-5.2c.9-1.2 2.2-1.9 3.9-1.9 1.7 0 3 .7 3.9 2h.1c-.2-1-.3-1.9-.3-2.7v-4.4h3.7v19h-2.9l-.7-1.8h-.2c-.7 1.4-2 2.1-3.7 2.1zm1.3-3c1 0 1.6-.3 2.1-.8.4-.6.7-1.5.7-2.8v-.4c0-1.5-.2-2.5-.7-3.1-.5-.6-1.2-1-2.2-1-.8 0-1.5.4-1.9 1.1s-.7 1.7-.7 3.1c0 1.3.2 2.3.7 3 .4.6 1.1.9 2 .9zM1015.1 91.8c-2.2 0-3.9-.6-5.2-1.8-1.2-1.2-1.9-2.9-1.9-5.2 0-2.3.6-4.1 1.7-5.3 1.1-1.2 2.7-1.9 4.7-1.9 1.9 0 3.4.5 4.5 1.6s1.6 2.6 1.6 4.6v1.8h-8.8c0 1.1.4 1.9.9 2.5s1.4.9 2.5.9c.8 0 1.6-.1 2.3-.3s1.5-.4 2.3-.8v2.9c-.7.3-1.3.6-2.1.7-.5.2-1.4.3-2.5.3zm-.5-11.5c-.8 0-1.4.2-1.9.8-.4.5-.7 1.2-.8 2.1h5.2c0-.9-.3-1.6-.7-2.1-.4-.6-1-.8-1.8-.8zM1036.1 84.7c0 2.2-.6 4-1.8 5.2s-2.8 1.9-4.9 1.9c-1.3 0-2.5-.3-3.5-.9-1-.6-1.8-1.4-2.3-2.5s-.8-2.3-.8-3.8c0-2.2.6-4 1.7-5.2 1.2-1.2 2.8-1.9 4.9-1.9 1.3 0 2.5.3 3.5.9 1 .6 1.8 1.4 2.3 2.5s.9 2.4.9 3.8zm-9.4 0c0 1.4.2 2.4.7 3.1s1.2 1 2.2 1c1 0 1.7-.3 2.1-1 .4-.7.7-1.7.7-3.1 0-1.4-.2-2.4-.7-3s-1.2-1-2.2-1c-1 0-1.7.3-2.1 1-.5.6-.7 1.6-.7 3zM1052.9 91.5h-3.8V76.9h-4.8v-3.1h13.5v3.1h-4.8v14.6zM1067.8 77.6c.5 0 .9 0 1.3.1l-.3 3.5c-.3-.1-.7-.1-1.1-.1-1.2 0-2.1.3-2.8.9-.7.6-1 1.5-1 2.6v6.9h-3.7V77.9h2.8l.5 2.3h.2c.4-.8 1-1.4 1.7-1.8.8-.5 1.6-.8 2.4-.8zM1080.2 91.5l-.7-1.9h-.1c-.6.8-1.3 1.3-1.9 1.6-.7.3-1.5.5-2.6.5-1.3 0-2.3-.4-3.1-1.1-.8-.7-1.1-1.8-1.1-3.2 0-1.4.5-2.5 1.5-3.2 1-.7 2.5-1.1 4.6-1.1l2.4-.1v-.6c0-1.4-.7-2.1-2.1-2.1-1.1 0-2.4.3-3.8 1l-1.2-2.5c1.6-.8 3.3-1.2 5.2-1.2 1.8 0 3.2.4 4.2 1.2 1 .8 1.5 2 1.5 3.6v9.1h-2.8zm-1.1-6.3h-1.4c-1.1 0-1.9.2-2.4.6s-.8.9-.8 1.6c0 1 .6 1.6 1.8 1.6.9 0 1.6-.2 2.1-.7.5-.5.8-1.2.8-2v-1.1zM1086.5 74.4c0-1.2.7-1.8 2-1.8s2 .6 2 1.8c0 .6-.2 1-.5 1.3-.3.3-.8.5-1.5.5-1.3 0-2-.6-2-1.8zm3.9 17.1h-3.7V77.9h3.7v13.6zM1106.9 91.5h-3.7v-8c0-1-.2-1.7-.5-2.2s-.9-.7-1.7-.7c-1 0-1.8.3-2.3 1-.5.7-.7 1.8-.7 3.5v6.4h-3.7V77.9h2.8l.5 1.7h.2c.4-.7 1-1.2 1.7-1.5.7-.3 1.6-.5 2.5-.5 1.6 0 2.8.4 3.6 1.3.8.9 1.2 2.1 1.2 3.7v8.9zM1110.5 74.4c0-1.2.7-1.8 2-1.8 1.4 0 2 .6 2 1.8 0 .6-.2 1-.5 1.3s-.8.5-1.5.5c-1.3 0-2-.6-2-1.8zm3.9 17.1h-3.7V77.9h3.7v13.6zM1130.9 91.5h-3.7v-8c0-1-.2-1.7-.5-2.2-.4-.5-.9-.7-1.7-.7-1 0-1.8.3-2.3 1-.5.7-.7 1.8-.7 3.5v6.4h-3.7V77.9h2.8l.5 1.7h.2c.4-.7 1-1.2 1.7-1.5.7-.3 1.6-.5 2.5-.5 1.6 0 2.8.4 3.6 1.3.8.9 1.2 2.1 1.2 3.7v8.9zM1146.6 77.9v1.9l-2.1.5c.4.6.6 1.3.6 2.1 0 1.5-.5 2.6-1.5 3.4-1 .8-2.4 1.2-4.3 1.2h-.7l-.5-.1c-.4.3-.6.6-.6 1 0 .5.7.8 2.1.8h2.3c1.5 0 2.6.3 3.4 1 .8.6 1.2 1.6 1.2 2.8 0 1.6-.7 2.8-2 3.7-1.3.9-3.2 1.3-5.7 1.3-1.9 0-3.4-.3-4.4-1-1-.7-1.5-1.6-1.5-2.8 0-.8.3-1.5.8-2.1.5-.6 1.3-.9 2.3-1.2-.4-.2-.7-.4-1-.8-.3-.4-.4-.8-.4-1.2 0-.5.2-1 .5-1.3.3-.3.7-.7 1.3-1-.7-.3-1.3-.8-1.7-1.5-.4-.7-.6-1.5-.6-2.4 0-1.5.5-2.6 1.5-3.5 1-.8 2.4-1.2 4.2-1.2.4 0 .8 0 1.4.1.5.1.9.1 1 .2h4.4zm-10.5 15.6c0 .5.2.9.7 1.2s1.2.4 2.1.4c1.3 0 2.4-.2 3.1-.5s1.1-.9 1.1-1.5c0-.5-.2-.9-.7-1.1s-1.1-.3-2.1-.3h-1.9c-.7 0-1.3.2-1.7.5-.4.3-.6.7-.6 1.3zm1.4-11.1c0 .7.2 1.3.5 1.8s.9.6 1.5.6c.7 0 1.2-.2 1.5-.6s.5-1 .5-1.8c0-1.6-.7-2.5-2-2.5-1.4 0-2 .8-2 2.5zM1158.4 87.5c0 1.4-.5 2.5-1.5 3.2-1 .7-2.4 1.1-4.4 1.1-1 0-1.8-.1-2.5-.2s-1.4-.3-2-.6v-3.1c.7.3 1.5.6 2.3.8.9.2 1.6.3 2.3.3 1.4 0 2-.4 2-1.2 0-.3-.1-.5-.3-.7-.2-.2-.5-.4-.9-.6-.4-.2-1-.5-1.8-.8-1-.4-1.8-.8-2.3-1.2-.5-.4-.9-.8-1.1-1.3s-.3-1.1-.3-1.8c0-1.2.5-2.1 1.4-2.8.9-.7 2.3-1 4-1 1.6 0 3.2.4 4.8 1.1l-1.1 2.7c-.7-.3-1.3-.5-1.9-.7-.6-.2-1.2-.3-1.8-.3-1.1 0-1.6.3-1.6.9 0 .3.2.6.5.9.4.2 1.1.6 2.3 1.1 1.1.4 1.8.8 2.3 1.2.5.4.9.8 1.1 1.3.4.4.5 1 .5 1.7z"/></g><g><path data-cppathid="10026" d="M935.3 130.5V122h1.4v7.4h3.6v1.2h-5zM949.4 126.2c0 1.4-.3 2.5-1 3.3s-1.7 1.2-3 1.2-2.3-.4-3-1.2-1-1.9-1-3.3.3-2.5 1-3.3 1.7-1.1 3-1.1 2.3.4 3 1.2 1 1.8 1 3.2zm-6.5 0c0 1.1.2 1.9.6 2.4s1.1.8 1.9.8c.8 0 1.5-.3 1.9-.8s.6-1.3.6-2.4c0-1.1-.2-1.8-.6-2.4s-1-.8-1.9-.8c-.8 0-1.5.3-1.9.8s-.6 1.4-.6 2.4zM954.8 125.9h3.2v4.3c-.5.2-1 .3-1.5.4s-1 .1-1.5.1c-1.3 0-2.3-.4-3-1.2s-1.1-1.9-1.1-3.2c0-1.4.4-2.5 1.2-3.2s1.9-1.2 3.3-1.2c.9 0 1.7.2 2.5.5l-.5 1.2c-.7-.3-1.4-.5-2.1-.5-.9 0-1.6.3-2.2.9s-.8 1.4-.8 2.4.2 1.8.7 2.4 1.2.8 2.1.8c.5 0 .9-.1 1.5-.2v-2.2h-1.8v-1.3zM967.6 126.2c0 1.4-.3 2.5-1 3.3s-1.7 1.2-3 1.2-2.3-.4-3-1.2-1-1.9-1-3.3.3-2.5 1-3.3 1.7-1.1 3-1.1 2.3.4 3 1.2 1 1.8 1 3.2zm-6.6 0c0 1.1.2 1.9.6 2.4s1.1.8 1.9.8c.8 0 1.5-.3 1.9-.8s.6-1.3.6-2.4c0-1.1-.2-1.8-.6-2.4s-1-.8-1.9-.8c-.8 0-1.5.3-1.9.8s-.6 1.4-.6 2.4z"/></g><g><path data-cppathid="10027" d="M1115.4 130.8h-1.3v-3.5h-3.6v3.5h-1.3v-7.9h1.3v3.2h3.6v-3.2h1.3v7.9zM1124.4 126.8c0 1.3-.3 2.3-1 3-.6.7-1.5 1.1-2.7 1.1-1.2 0-2.1-.4-2.7-1.1-.6-.7-1-1.7-1-3s.3-2.3 1-3c.6-.7 1.6-1 2.7-1 1.2 0 2.1.4 2.7 1.1.7.7 1 1.7 1 2.9zm-6 0c0 1 .2 1.7.6 2.2.4.5 1 .7 1.7.7.8 0 1.3-.2 1.7-.7s.6-1.2.6-2.2c0-1-.2-1.7-.6-2.2s-1-.7-1.7-.7c-.8 0-1.4.2-1.7.7-.4.5-.6 1.3-.6 2.2zM1129.5 130.8l-2.3-6.6c.1 1 .1 1.9.1 2.7v3.8h-1.2v-7.9h1.8l2.2 6.2 2.2-6.2h1.8v7.9h-1.2v-5.4c0-.6 0-1 .1-1.1l-2.4 6.5h-1.1zM1140.7 130.8h-4.4v-7.9h4.4v1.1h-3.2v2.1h3v1.1h-3v2.5h3.2v1.1z"/></g><g><path data-cppathid="10028" d="M1156.2 130.8v-7.9h1.3v6.8h3.3v1.1h-4.6zM1169.1 126.8c0 1.3-.3 2.3-1 3-.6.7-1.5 1.1-2.7 1.1-1.2 0-2.1-.4-2.7-1.1-.6-.7-1-1.7-1-3s.3-2.3 1-3c.6-.7 1.6-1 2.7-1 1.2 0 2.1.4 2.7 1.1.7.7 1 1.7 1 2.9zm-6 0c0 1 .2 1.7.6 2.2.4.5 1 .7 1.7.7.8 0 1.3-.2 1.7-.7s.6-1.2.6-2.2c0-1-.2-1.7-.6-2.2s-1-.7-1.7-.7c-.8 0-1.4.2-1.7.7-.4.5-.6 1.3-.6 2.2zM1174 126.5h2.9v3.9c-.5.2-.9.3-1.4.3-.4.1-.9.1-1.4.1-1.2 0-2.1-.4-2.8-1.1-.6-.7-1-1.7-1-3s.4-2.3 1.1-3c.7-.7 1.7-1.1 3-1.1.8 0 1.6.2 2.3.5l-.5 1.1c-.6-.3-1.3-.4-1.9-.4-.8 0-1.5.3-2 .8s-.7 1.2-.7 2.2c0 1 .2 1.7.7 2.2.4.5 1.1.7 1.9.7.4 0 .9-.1 1.3-.2v-2h-1.6v-1zM1185.8 126.8c0 1.3-.3 2.3-1 3-.6.7-1.5 1.1-2.7 1.1-1.2 0-2.1-.4-2.7-1.1-.6-.7-1-1.7-1-3s.3-2.3 1-3c.6-.7 1.6-1 2.7-1 1.2 0 2.1.4 2.7 1.1.7.7 1 1.7 1 2.9zm-6 0c0 1 .2 1.7.6 2.2.4.5 1 .7 1.7.7.8 0 1.3-.2 1.7-.7s.6-1.2.6-2.2c0-1-.2-1.7-.6-2.2s-1-.7-1.7-.7c-.8 0-1.4.2-1.7.7-.4.5-.6 1.3-.6 2.2zM1193.6 122.9v5.1c0 .6-.1 1.1-.4 1.5-.2.4-.6.8-1.1 1-.5.2-1 .4-1.7.4-1 0-1.7-.3-2.3-.8-.5-.5-.8-1.2-.8-2.1v-5.1h1.3v5c0 .6.2 1.1.5 1.4s.8.5 1.4.5c1.2 0 1.8-.6 1.8-1.9v-5h1.3zM1198.3 130.8h-1.3V124h-2.3v-1.1h5.9v1.1h-2.3v6.8z"/></g><circle data-cppathid="10029" r="20.3" cy="268.7" cx="212.5" class="st12"/><path data-cppathid="10030" d="M492.4 504.8h294V701h-294z" class="st6"/><g><path data-cppathid="10031" d="M525.4 574.8v-21.4h3.5v18.4h9.1v3h-12.6zM555.7 566.7c0 2.6-.7 4.7-2 6.2s-3.2 2.2-5.7 2.2c-1.5 0-2.9-.3-4-1s-2.1-1.7-2.7-2.9-.9-2.8-.9-4.5c0-2.6.7-4.7 2-6.2s3.2-2.2 5.7-2.2c2.3 0 4.2.8 5.6 2.3 1.3 1.5 2 3.5 2 6.1zm-11.8 0c0 3.7 1.4 5.6 4.1 5.6 2.7 0 4.1-1.9 4.1-5.6 0-3.7-1.4-5.6-4.1-5.6-1.4 0-2.5.5-3.1 1.4s-1 2.4-1 4.2zM573.3 558.6v1.9l-2.8.5c.3.3.5.8.6 1.3s.2 1 .2 1.6c0 1.7-.6 3-1.7 3.9s-2.7 1.4-4.8 1.4c-.5 0-1 0-1.4-.1-.7.5-1.1 1-1.1 1.6 0 .4.2.6.5.8s1 .3 1.9.3h2.8c1.8 0 3.1.4 4.1 1.1s1.4 1.9 1.4 3.3c0 1.8-.8 3.3-2.3 4.2s-3.7 1.5-6.6 1.5c-2.2 0-3.9-.4-5.1-1.2s-1.7-1.9-1.7-3.3c0-1 .3-1.8.9-2.5.6-.7 1.5-1.2 2.6-1.4-.5-.2-.8-.5-1.1-.9-.3-.4-.4-.9-.4-1.4 0-.6.2-1.1.5-1.5s.8-.8 1.5-1.2c-.8-.4-1.5-.9-2-1.8-.5-.8-.8-1.8-.8-2.9 0-1.8.6-3.1 1.7-4.1s2.7-1.5 4.7-1.5c.5 0 .9 0 1.4.1s.9.1 1.1.2h5.9zm-12.7 18.7c0 .7.3 1.3 1 1.7s1.6.6 2.8.6c1.9 0 3.3-.3 4.2-.8s1.4-1.2 1.4-2.1c0-.7-.3-1.2-.8-1.5-.5-.3-1.4-.4-2.8-.4h-2.6c-1 0-1.8.2-2.4.7s-.8 1-.8 1.8zm1.5-13.5c0 1 .3 1.8.8 2.3s1.3.8 2.2.8c2 0 3-1.1 3-3.2 0-1.1-.2-1.9-.7-2.4-.5-.6-1.2-.9-2.2-.9-1 0-1.8.3-2.3.8s-.8 1.6-.8 2.6zM576.1 554.3c0-.6.2-1.1.5-1.4s.8-.5 1.4-.5c.6 0 1.1.2 1.4.5s.5.8.5 1.4c0 .6-.2 1-.5 1.4-.3.3-.8.5-1.4.5-.6 0-1.1-.2-1.4-.5-.3-.3-.5-.8-.5-1.4zm3.7 20.5h-3.4v-16.2h3.4v16.2zM598.9 574.8h-3.5v-10c0-1.2-.3-2.2-.8-2.8s-1.3-.9-2.4-.9c-1.5 0-2.5.4-3.2 1.3s-1 2.3-1 4.3v8.1h-3.4v-16.2h2.7l.5 2.1h.2c.5-.8 1.2-1.4 2.1-1.8s1.9-.6 3-.6c3.9 0 5.8 2 5.8 5.9v10.6zM602.3 568.2v-2.9h7.5v2.9h-7.5zM631.2 563.9c0 3.5-1 6.2-2.9 8.1s-4.8 2.8-8.5 2.8h-6v-21.4h6.6c3.4 0 6.1.9 8 2.8s2.8 4.4 2.8 7.7zm-3.7.1c0-5.1-2.4-7.7-7.2-7.7h-3v15.5h2.5c5.1.1 7.7-2.6 7.7-7.8zM645.5 574.8l-.7-2.3h-.1c-.8 1-1.6 1.7-2.4 2-.8.4-1.8.5-3 .5-1.6 0-2.8-.4-3.7-1.3s-1.3-2.1-1.3-3.6c0-1.7.6-2.9 1.9-3.8s3.1-1.3 5.7-1.4l2.8-.1v-.8c0-1-.2-1.8-.7-2.3-.5-.5-1.2-.8-2.2-.8-.8 0-1.6.1-2.4.4s-1.5.5-2.2.9l-1.1-2.5c.9-.5 1.8-.8 2.9-1s2-.4 3-.4c2.1 0 3.6.4 4.7 1.3s1.6 2.3 1.6 4.2v10.9h-2.8zm-5.1-2.3c1.2 0 2.3-.3 3-1s1.1-1.7 1.1-2.9v-1.4l-2.1.1c-1.6.1-2.8.3-3.5.8-.7.5-1.1 1.2-1.1 2.2 0 .7.2 1.3.6 1.7.5.3 1.2.5 2 .5zM658.8 572.3c.8 0 1.7-.1 2.5-.4v2.6c-.4.2-.9.3-1.5.4-.6.1-1.2.2-1.9.2-3.3 0-4.9-1.7-4.9-5.2v-8.7h-2.2v-1.5l2.4-1.3 1.2-3.4h2.1v3.6h4.6v2.6h-4.6v8.7c0 .8.2 1.4.6 1.8.5.4 1.1.6 1.7.6zM671.7 575.1c-2.5 0-4.5-.7-5.9-2.2-1.4-1.5-2.1-3.5-2.1-6.1 0-2.6.7-4.7 2-6.2s3.1-2.3 5.4-2.3c2.1 0 3.8.6 5.1 1.9s1.9 3.1 1.9 5.4v1.9h-10.8c0 1.6.5 2.8 1.3 3.6.8.8 1.9 1.3 3.4 1.3 1 0 1.8-.1 2.7-.3.8-.2 1.7-.5 2.7-.9v2.8c-.8.4-1.7.7-2.5.8s-2.1.3-3.2.3zm-.7-14.2c-1.1 0-2 .3-2.6 1s-1.1 1.7-1.2 3h7.4c0-1.3-.3-2.4-1-3-.6-.6-1.5-1-2.6-1zM696.1 574.8h-3.5v-10c0-1.2-.3-2.2-.8-2.8s-1.3-.9-2.4-.9c-1.5 0-2.5.4-3.2 1.3s-1 2.3-1 4.3v8.1h-3.4v-16.2h2.7l.5 2.1h.2c.5-.8 1.2-1.4 2.1-1.8s1.9-.6 3-.6c3.9 0 5.8 2 5.8 5.9v10.6zM719.5 574.8h-12.3v-2.1l8.2-11.4h-7.7v-2.6h11.6v2.4l-8 11.2h8.2v2.5zM734.5 574.8l-.5-2.1h-.2c-.5.8-1.2 1.3-2 1.8s-1.9.6-3 .6c-2 0-3.4-.5-4.4-1.5s-1.5-2.5-1.5-4.4v-10.6h3.5v10c0 1.2.3 2.2.8 2.8s1.3.9 2.4.9c1.4 0 2.5-.4 3.2-1.3.7-.9 1-2.3 1-4.3v-8.1h3.5v16.2h-2.8zM750.3 558.3c.7 0 1.3 0 1.7.1l-.3 3.2c-.5-.1-1-.2-1.5-.2-1.4 0-2.5.4-3.3 1.3-.9.9-1.3 2.1-1.3 3.5v8.5h-3.4v-16.2h2.7l.5 2.9h.2c.5-1 1.2-1.7 2.1-2.3.7-.5 1.6-.8 2.6-.8zM541.3 610.8l-6.2-17.9h-.1c.2 2.7.2 5.1.2 7.5v10.4H532v-21.4h4.9l5.9 17h.1l6.1-17h5v21.4h-3.4v-10.6c0-1.1 0-2.5.1-4.2s.1-2.7.1-3.1h-.1l-6.4 17.9h-3zM559.1 590.3c0-.6.2-1.1.5-1.4s.8-.5 1.4-.5c.6 0 1.1.2 1.4.5s.5.8.5 1.4c0 .6-.2 1-.5 1.4-.3.3-.8.5-1.4.5-.6 0-1.1-.2-1.4-.5-.3-.3-.5-.8-.5-1.4zm3.7 20.5h-3.4v-16.2h3.4v16.2zM573.7 608.3c.8 0 1.7-.1 2.5-.4v2.6c-.4.2-.9.3-1.5.4-.6.1-1.2.2-1.9.2-3.3 0-4.9-1.7-4.9-5.2v-8.7h-2.2v-1.5l2.4-1.3 1.2-3.4h2.1v3.6h4.6v2.6h-4.6v8.7c0 .8.2 1.4.6 1.8.5.4 1.1.6 1.7.6zM593.2 594.6v1.9l-2.8.5c.3.3.5.8.6 1.3s.2 1 .2 1.6c0 1.7-.6 3-1.7 3.9s-2.7 1.4-4.8 1.4c-.5 0-1 0-1.4-.1-.7.5-1.1 1-1.1 1.6 0 .4.2.6.5.8s1 .3 1.9.3h2.8c1.8 0 3.1.4 4.1 1.1s1.4 1.9 1.4 3.3c0 1.8-.8 3.3-2.3 4.2s-3.7 1.5-6.6 1.5c-2.2 0-3.9-.4-5.1-1.2s-1.7-1.9-1.7-3.3c0-1 .3-1.8.9-2.5.6-.7 1.5-1.2 2.6-1.4-.5-.2-.8-.5-1.1-.9-.3-.4-.4-.9-.4-1.4 0-.6.2-1.1.5-1.5s.8-.8 1.5-1.2c-.8-.4-1.5-.9-2-1.8-.5-.8-.8-1.8-.8-2.9 0-1.8.6-3.1 1.7-4.1s2.7-1.5 4.7-1.5c.5 0 .9 0 1.4.1s.9.1 1.1.2h5.9zm-12.7 18.7c0 .7.3 1.3 1 1.7s1.6.6 2.8.6c1.9 0 3.3-.3 4.2-.8s1.4-1.2 1.4-2.1c0-.7-.3-1.2-.8-1.5-.5-.3-1.4-.4-2.8-.4h-2.6c-1 0-1.8.2-2.4.7s-.8 1-.8 1.8zm1.4-13.5c0 1 .3 1.8.8 2.3s1.3.8 2.2.8c2 0 3-1.1 3-3.2 0-1.1-.2-1.9-.7-2.4-.5-.6-1.2-.9-2.2-.9-1 0-1.8.3-2.3.8s-.8 1.6-.8 2.6zM599.6 610.8h-3.4V588h3.4v22.8zM604.3 590.3c0-.6.2-1.1.5-1.4s.8-.5 1.4-.5c.6 0 1.1.2 1.4.5s.5.8.5 1.4c0 .6-.2 1-.5 1.4-.3.3-.8.5-1.4.5-.6 0-1.1-.2-1.4-.5-.3-.3-.5-.8-.5-1.4zm3.7 20.5h-3.4v-16.2h3.4v16.2zM620 611.1c-2.5 0-4.5-.7-5.9-2.2-1.4-1.5-2.1-3.5-2.1-6.1 0-2.6.7-4.7 2-6.2s3.1-2.3 5.4-2.3c2.1 0 3.8.6 5.1 1.9s1.9 3.1 1.9 5.4v1.9h-10.8c0 1.6.5 2.8 1.3 3.6.8.8 1.9 1.3 3.4 1.3 1 0 1.8-.1 2.7-.3.8-.2 1.7-.5 2.7-.9v2.8c-.8.4-1.7.7-2.5.8s-2.1.3-3.2.3zm-.6-14.2c-1.1 0-2 .3-2.6 1s-1.1 1.7-1.2 3h7.4c0-1.3-.3-2.4-1-3-.7-.6-1.5-1-2.6-1zM635.7 611.1c-2 0-3.6-.7-4.7-2.2s-1.7-3.5-1.7-6.2.6-4.7 1.7-6.2 2.7-2.2 4.8-2.2c2.1 0 3.8.8 4.9 2.4h.2c-.2-1.2-.2-2.1-.2-2.8V588h3.5v22.8h-2.7l-.6-2.1h-.2c-1.3 1.6-2.9 2.4-5 2.4zm.9-2.8c1.4 0 2.4-.4 3.1-1.2s1-2.1 1-3.9v-.5c0-2-.3-3.5-1-4.4s-1.7-1.3-3.1-1.3c-1.2 0-2.1.5-2.8 1.5-.7 1-1 2.4-1 4.2 0 1.8.3 3.2 1 4.1.6 1 1.5 1.5 2.8 1.5zM656 611.1c-2.5 0-4.5-.7-5.9-2.2-1.4-1.5-2.1-3.5-2.1-6.1 0-2.6.7-4.7 2-6.2s3.1-2.3 5.4-2.3c2.1 0 3.8.6 5.1 1.9s1.9 3.1 1.9 5.4v1.9h-10.8c0 1.6.5 2.8 1.3 3.6.8.8 1.9 1.3 3.4 1.3 1 0 1.8-.1 2.7-.3.8-.2 1.7-.5 2.7-.9v2.8c-.8.4-1.7.7-2.5.8s-2.1.3-3.2.3zm-.7-14.2c-1.1 0-2 .3-2.6 1s-1.1 1.7-1.2 3h7.4c0-1.3-.3-2.4-1-3-.6-.6-1.5-1-2.6-1zM674.4 594.3c.7 0 1.3 0 1.7.1l-.3 3.2c-.5-.1-1-.2-1.5-.2-1.4 0-2.5.4-3.3 1.3s-1.3 2.1-1.3 3.5v8.5h-3.4v-16.2h2.7l.5 2.9h.2c.5-1 1.2-1.7 2.1-2.3s1.6-.8 2.6-.8zM690 606.2c0 1.6-.6 2.8-1.7 3.6-1.2.8-2.8 1.3-5 1.3s-3.9-.3-5.2-1v-3c1.9.9 3.7 1.3 5.3 1.3 2.1 0 3.2-.6 3.2-1.9 0-.4-.1-.8-.4-1s-.6-.6-1.2-.8-1.3-.6-2.2-1c-1.9-.7-3.1-1.4-3.8-2.2s-1-1.7-1-2.8c0-1.4.6-2.5 1.7-3.2s2.6-1.2 4.6-1.2c1.9 0 3.7.4 5.4 1.2l-1.1 2.6c-1.7-.7-3.2-1.1-4.4-1.1-1.8 0-2.7.5-2.7 1.6 0 .5.2.9.7 1.3s1.5.8 3.1 1.5c1.3.5 2.3 1 2.9 1.4s1.1.9 1.3 1.5c.3.4.5 1.1.5 1.9zM700.8 611.1c-2.5 0-4.5-.7-5.9-2.2-1.4-1.5-2.1-3.5-2.1-6.1 0-2.6.7-4.7 2-6.2s3.1-2.3 5.4-2.3c2.1 0 3.8.6 5.1 1.9s1.9 3.1 1.9 5.4v1.9h-10.8c0 1.6.5 2.8 1.3 3.6.8.8 1.9 1.3 3.4 1.3 1 0 1.8-.1 2.7-.3.8-.2 1.7-.5 2.7-.9v2.8c-.8.4-1.7.7-2.5.8s-2.1.3-3.2.3zm-.6-14.2c-1.1 0-2 .3-2.6 1s-1.1 1.7-1.2 3h7.4c0-1.3-.3-2.4-1-3-.7-.6-1.5-1-2.6-1zM710.8 590.3c0-.6.2-1.1.5-1.4s.8-.5 1.4-.5c.6 0 1.1.2 1.4.5s.5.8.5 1.4c0 .6-.2 1-.5 1.4-.3.3-.8.5-1.4.5-.6 0-1.1-.2-1.4-.5-.3-.3-.5-.8-.5-1.4zm3.6 20.5H711v-16.2h3.4v16.2zM725.4 608.3c.8 0 1.7-.1 2.5-.4v2.6c-.4.2-.9.3-1.5.4-.6.1-1.2.2-1.9.2-3.3 0-4.9-1.7-4.9-5.2v-8.7h-2.2v-1.5l2.4-1.3 1.2-3.4h2.1v3.6h4.6v2.6h-4.6v8.7c0 .8.2 1.4.6 1.8.5.4 1 .6 1.7.6zM738.2 611.1c-2.5 0-4.5-.7-5.9-2.2-1.4-1.5-2.1-3.5-2.1-6.1 0-2.6.7-4.7 2-6.2s3.1-2.3 5.4-2.3c2.1 0 3.8.6 5.1 1.9s1.9 3.1 1.9 5.4v1.9h-10.8c0 1.6.5 2.8 1.3 3.6.8.8 1.9 1.3 3.4 1.3 1 0 1.8-.1 2.7-.3.8-.2 1.7-.5 2.7-.9v2.8c-.8.4-1.7.7-2.5.8s-2.1.3-3.2.3zm-.6-14.2c-1.1 0-2 .3-2.6 1-.7.7-1.1 1.7-1.2 3h7.4c0-1.3-.3-2.4-1-3-.6-.6-1.5-1-2.6-1zM528.8 646.8l-.5-2.1h-.2c-.5.8-1.2 1.3-2 1.8s-1.9.6-3 .6c-2 0-3.4-.5-4.4-1.5s-1.5-2.5-1.5-4.4v-10.6h3.5v10c0 1.2.3 2.2.8 2.8s1.3.9 2.4.9c1.4 0 2.5-.4 3.2-1.3.7-.9 1-2.3 1-4.3v-8.1h3.5v16.2h-2.8zm-9-20.5c0-.6.2-1 .5-1.3.3-.3.7-.4 1.2-.4s.9.2 1.2.5.5.7.5 1.3c0 .5-.2.9-.5 1.2s-.7.5-1.2.5-.9-.1-1.2-.4-.5-.8-.5-1.4zm5.8 0c0-.6.2-1 .5-1.3.3-.3.7-.4 1.2-.4s.9.2 1.2.5.5.7.5 1.3c0 .5-.2.9-.5 1.3-.3.3-.7.5-1.2.5s-.9-.1-1.2-.4-.5-.9-.5-1.5zM544.7 630.3c2 0 3.6.7 4.7 2.2s1.7 3.5 1.7 6.2-.6 4.7-1.7 6.2-2.7 2.2-4.8 2.2c-2.1 0-3.6-.7-4.8-2.2h-.2l-.6 1.9h-2.6V624h3.4v5.4c0 .4 0 1-.1 1.8s-.1 1.3-.1 1.5h.1c1.3-1.6 2.9-2.4 5-2.4zm-.9 2.8c-1.4 0-2.4.4-3 1.2-.6.8-.9 2.2-.9 4.1v.2c0 2 .3 3.4.9 4.3.6.9 1.6 1.3 3.1 1.3 1.2 0 2.1-.5 2.8-1.5s.9-2.4.9-4.2c0-3.5-1.3-5.4-3.8-5.4zM562.2 647.1c-2.5 0-4.5-.7-5.9-2.2-1.4-1.5-2.1-3.5-2.1-6.1 0-2.6.7-4.7 2-6.2s3.1-2.3 5.4-2.3c2.1 0 3.8.6 5.1 1.9s1.9 3.1 1.9 5.4v1.9h-10.8c0 1.6.5 2.8 1.3 3.6.8.8 1.9 1.3 3.4 1.3 1 0 1.8-.1 2.7-.3.8-.2 1.7-.5 2.7-.9v2.8c-.8.4-1.7.7-2.5.8s-2.1.3-3.2.3zm-.6-14.2c-1.1 0-2 .3-2.6 1s-1.1 1.7-1.2 3h7.4c0-1.3-.3-2.4-1-3-.7-.6-1.5-1-2.6-1zM580.6 630.3c.7 0 1.3 0 1.7.1l-.3 3.2c-.5-.1-1-.2-1.5-.2-1.4 0-2.5.4-3.3 1.3s-1.3 2.1-1.3 3.5v8.5h-3.4v-16.2h2.7l.5 2.9h.2c.5-1 1.2-1.7 2.1-2.3s1.6-.8 2.6-.8zM611.1 635.9c0 3.5-1 6.2-3 8.1s-4.9 2.8-8.7 2.8h-6.1v-21.4h6.7c3.5 0 6.2.9 8.1 2.8s3 4.4 3 7.7zm-4.7.1c0-4.6-2-6.9-6.1-6.9h-2.4V643h1.9c4.4 0 6.6-2.3 6.6-7zM615 626.2c0-1.5.8-2.2 2.4-2.2s2.4.7 2.4 2.2c0 .7-.2 1.2-.6 1.6-.4.4-1 .6-1.8.6-1.6 0-2.4-.7-2.4-2.2zm4.7 20.6h-4.5v-16.4h4.5v16.4zM638.6 630.4v2.3l-2.6.7c.5.7.7 1.6.7 2.5 0 1.8-.6 3.1-1.8 4.1-1.2 1-2.9 1.5-5.1 1.5h-.8l-.7-.1c-.5.4-.7.7-.7 1.2 0 .6.8 1 2.5 1h2.8c1.8 0 3.2.4 4.1 1.2s1.4 1.9 1.4 3.4c0 1.9-.8 3.4-2.4 4.5s-3.9 1.6-6.9 1.6c-2.3 0-4-.4-5.2-1.2-1.2-.8-1.8-1.9-1.8-3.3 0-1 .3-1.8.9-2.5s1.5-1.1 2.7-1.4c-.5-.2-.9-.5-1.2-1s-.5-.9-.5-1.4c0-.6.2-1.1.5-1.6.4-.4.9-.8 1.6-1.2-.9-.4-1.5-1-2-1.8s-.8-1.8-.8-2.9c0-1.8.6-3.2 1.7-4.1s2.8-1.5 5-1.5c.5 0 1 0 1.6.1.6.1 1 .1 1.2.2h5.8zM626 649.1c0 .6.3 1.1.9 1.5s1.4.5 2.5.5c1.6 0 2.9-.2 3.8-.7s1.4-1 1.4-1.8c0-.6-.3-1-.8-1.3s-1.4-.4-2.5-.4H629c-.8 0-1.5.2-2.1.6s-.9 1-.9 1.6zm1.6-13.3c0 .9.2 1.6.6 2.1s1 .8 1.9.8c.8 0 1.5-.3 1.8-.8s.6-1.2.6-2.1c0-2-.8-3-2.4-3-1.7 0-2.5 1-2.5 3zM641.1 626.2c0-1.5.8-2.2 2.4-2.2s2.4.7 2.4 2.2c0 .7-.2 1.2-.6 1.6-.4.4-1 .6-1.8.6-1.5 0-2.4-.7-2.4-2.2zm4.7 20.6h-4.5v-16.4h4.5v16.4zM661.9 641.9c0 1.7-.6 3-1.8 3.8s-2.9 1.3-5.2 1.3c-1.2 0-2.2-.1-3-.2-.8-.2-1.6-.4-2.4-.7v-3.7c.8.4 1.8.7 2.8 1s2 .4 2.7.4c1.6 0 2.4-.5 2.4-1.4 0-.4-.1-.6-.3-.9-.2-.2-.6-.5-1.1-.7-.5-.3-1.2-.6-2.1-1-1.3-.5-2.2-1-2.8-1.5s-1-1-1.3-1.5c-.3-.6-.4-1.3-.4-2.1 0-1.5.6-2.6 1.7-3.4s2.7-1.2 4.8-1.2c2 0 3.9.4 5.8 1.3l-1.3 3.2c-.8-.4-1.6-.6-2.3-.9s-1.4-.3-2.2-.3c-1.3 0-2 .4-2 1.1 0 .4.2.7.6 1s1.4.7 2.8 1.3c1.3.5 2.2 1 2.8 1.5s1 1 1.3 1.6.5 1.2.5 2zM672.3 643.5c.8 0 1.7-.2 2.8-.5v3.3c-1.1.5-2.5.7-4.1.7-1.8 0-3.1-.5-3.9-1.4-.8-.9-1.2-2.3-1.2-4.1v-7.9h-2.1v-1.9l2.5-1.5 1.3-3.5h2.9v3.5h4.6v3.4h-4.6v7.9c0 .6.2 1.1.5 1.4s.7.6 1.3.6zM693.3 638.6c0 2.7-.7 4.8-2.1 6.3s-3.4 2.3-5.9 2.3c-1.6 0-3-.3-4.2-1-1.2-.7-2.1-1.7-2.8-3s-1-2.8-1-4.5c0-2.7.7-4.8 2.1-6.2s3.4-2.2 5.9-2.2c1.6 0 3 .3 4.2 1s2.1 1.7 2.8 2.9 1 2.7 1 4.4zm-11.3 0c0 1.6.3 2.8.8 3.7s1.4 1.2 2.6 1.2c1.2 0 2-.4 2.6-1.2s.8-2.1.8-3.7-.3-2.8-.8-3.6-1.4-1.2-2.6-1.2c-1.2 0-2.1.4-2.6 1.2-.6.7-.8 2-.8 3.6zM706.1 630.1c.6 0 1.1 0 1.5.1l-.3 4.2c-.4-.1-.8-.1-1.3-.1-1.4 0-2.5.4-3.3 1.1s-1.2 1.8-1.2 3.1v8.3H697v-16.4h3.4l.7 2.8h.2c.5-.9 1.2-1.7 2.1-2.2s1.7-.9 2.7-.9zM718 647.1c-2.6 0-4.7-.7-6.2-2.2s-2.2-3.5-2.2-6.2.7-4.9 2.1-6.4 3.3-2.2 5.7-2.2c2.3 0 4.1.7 5.4 2s1.9 3.1 1.9 5.5v2.2h-10.6c0 1.3.4 2.3 1.1 3s1.7 1.1 3 1.1c1 0 1.9-.1 2.8-.3s1.8-.5 2.8-1v3.5c-.8.4-1.6.7-2.5.9-.9 0-2 .1-3.3.1zm-.6-13.8c-.9 0-1.7.3-2.2.9-.5.6-.8 1.5-.9 2.6h6.3c0-1.1-.3-2-.9-2.6-.6-.6-1.4-.9-2.3-.9zM742.2 646.8h-15v-3.1l5.4-5.4c1.6-1.6 2.6-2.8 3.1-3.4.5-.6.8-1.2 1.1-1.8s.3-1.1.3-1.7c0-.9-.2-1.5-.7-1.9s-1.1-.6-1.9-.6c-.8 0-1.6.2-2.4.6s-1.6.9-2.4 1.6l-2.5-2.9c1.1-.9 1.9-1.5 2.6-1.9s1.5-.7 2.3-.9c.8-.2 1.7-.3 2.8-.3 1.3 0 2.5.2 3.5.7s1.8 1.2 2.4 2.1.8 1.9.8 3c0 1-.2 1.9-.5 2.8-.3.9-.9 1.8-1.6 2.7s-2 2.2-3.8 3.9l-2.8 2.6v.2h9.3v3.7zM759.8 642.4h-2.6v4.4h-4.4v-4.4h-9.1v-3.1l9.4-13.8h4.2V639h2.6v3.4zm-7-3.6v-3.6c0-.6 0-1.5.1-2.6s.1-1.8.1-2h-.1c-.4.8-.8 1.6-1.3 2.3l-3.9 5.9h5.1z"/></g><g><path data-cppathid="10032" d="M392.1 611.9h46.7" class="st7"/><path data-cppathid="10033" d="m434.1 627.8 27.6-15.9-27.6-16z"/></g><g><path data-cppathid="10034" d="M639.4 489.2v-46.7" class="st7"/><path data-cppathid="10035" d="m655.4 447.2-16-27.6-15.9 27.6z"/></g><g><path data-cppathid="10036" d="M813.9 248.3h46.7" class="st7"/><path data-cppathid="10037" d="m855.9 264.3 27.7-16-27.7-15.9z"/></g><path data-cppathid="10038" d="M978.7 149.1h156.1v89.4H978.7z" class="st13"/><circle data-cppathid="10039" r="20.3" cy="197.8" cx="1058.9" class="st12"/><path data-cppathid="10040" d="M978.7 254.8h156.1V286H978.7zM978.7 293.8h156.1V325H978.7zM978.7 332.9h156.1v31.2H978.7z" class="st13"/><path data-cppathid="10041" d="M911.9 504.8h294V701h-294z" class="st6"/><g><path data-cppathid="10042" d="M1023.8 577.2h-3.8l-3.6-12.8c-.2-.6-.4-1.4-.6-2.4-.2-1-.4-1.8-.4-2.2-.1.6-.3 1.4-.5 2.4s-.4 1.7-.5 2.2l-3.5 12.7h-3.8l-2.8-10.7-2.8-10.7h3.6l3.1 12.5c.5 2 .8 3.8 1 5.3.1-.8.3-1.8.5-2.8s.4-1.9.6-2.5l3.5-12.5h3.5l3.6 12.6c.3 1.2.7 2.9 1.1 5.2.1-1.4.5-3.2 1.1-5.3l3-12.5h3.5l-5.8 21.5zM1039.1 577.5c-2.5 0-4.5-.7-5.9-2.2-1.4-1.5-2.1-3.5-2.1-6.1 0-2.6.7-4.7 2-6.2s3.1-2.3 5.4-2.3c2.1 0 3.8.6 5.1 1.9s1.9 3.1 1.9 5.4v1.9h-10.8c0 1.6.5 2.8 1.3 3.6.8.8 1.9 1.3 3.4 1.3 1 0 1.8-.1 2.7-.3.8-.2 1.7-.5 2.7-.9v2.8c-.8.4-1.7.7-2.5.8s-2.1.3-3.2.3zm-.6-14.2c-1.1 0-2 .3-2.6 1s-1.1 1.7-1.2 3h7.4c0-1.3-.3-2.4-1-3-.6-.7-1.5-1-2.6-1zM1049.1 556.7c0-.6.2-1.1.5-1.4s.8-.5 1.4-.5c.6 0 1.1.2 1.4.5s.5.8.5 1.4c0 .6-.2 1-.5 1.4-.3.3-.8.5-1.4.5-.6 0-1.1-.2-1.4-.5-.3-.4-.5-.8-.5-1.4zm3.7 20.5h-3.4V561h3.4v16.2zM1063.7 574.7c.8 0 1.7-.1 2.5-.4v2.6c-.4.2-.9.3-1.5.4-.6.1-1.2.2-1.9.2-3.3 0-4.9-1.7-4.9-5.2v-8.7h-2.2v-1.5l2.4-1.3 1.2-3.4h2.1v3.6h4.6v2.6h-4.6v8.7c0 .8.2 1.4.6 1.8.5.4 1.1.6 1.7.6zM1076.6 577.5c-2.5 0-4.5-.7-5.9-2.2-1.4-1.5-2.1-3.5-2.1-6.1 0-2.6.7-4.7 2-6.2s3.1-2.3 5.4-2.3c2.1 0 3.8.6 5.1 1.9s1.9 3.1 1.9 5.4v1.9h-10.8c0 1.6.5 2.8 1.3 3.6.8.8 1.9 1.3 3.4 1.3 1 0 1.8-.1 2.7-.3.8-.2 1.7-.5 2.7-.9v2.8c-.8.4-1.7.7-2.5.8s-2.1.3-3.2.3zm-.7-14.2c-1.1 0-2 .3-2.6 1s-1.1 1.7-1.2 3h7.4c0-1.3-.3-2.4-1-3-.6-.7-1.5-1-2.6-1zM1095 560.7c.7 0 1.3 0 1.7.1l-.3 3.2c-.5-.1-1-.2-1.5-.2-1.4 0-2.5.4-3.3 1.3s-1.3 2.1-1.3 3.5v8.5h-3.4V561h2.7l.5 2.9h.2c.5-1 1.2-1.7 2.1-2.3s1.6-.9 2.6-.9zM1106.8 577.5c-2.5 0-4.5-.7-5.9-2.2-1.4-1.5-2.1-3.5-2.1-6.1 0-2.6.7-4.7 2-6.2s3.1-2.3 5.4-2.3c2.1 0 3.8.6 5.1 1.9s1.9 3.1 1.9 5.4v1.9h-10.8c0 1.6.5 2.8 1.3 3.6.8.8 1.9 1.3 3.4 1.3 1 0 1.8-.1 2.7-.3.8-.2 1.7-.5 2.7-.9v2.8c-.8.4-1.7.7-2.5.8s-2.1.3-3.2.3zm-.6-14.2c-1.1 0-2 .3-2.6 1s-1.1 1.7-1.2 3h7.4c0-1.3-.3-2.4-1-3-.7-.7-1.5-1-2.6-1zM1001.4 613.2h-3.5v-18.4h-6.3v-3h16.1v3h-6.3v18.4zM1018.8 596.7c.7 0 1.3 0 1.7.1l-.3 3.2c-.5-.1-1-.2-1.5-.2-1.4 0-2.5.4-3.3 1.3s-1.3 2.1-1.3 3.5v8.5h-3.4V597h2.7l.5 2.9h.2c.5-1 1.2-1.7 2.1-2.3s1.6-.9 2.6-.9zM1033.7 613.2l-.7-2.3h-.1c-.8 1-1.6 1.7-2.4 2-.8.4-1.8.5-3 .5-1.6 0-2.8-.4-3.7-1.3s-1.3-2.1-1.3-3.6c0-1.7.6-2.9 1.9-3.8s3.1-1.3 5.7-1.4l2.8-.1v-.9c0-1-.2-1.8-.7-2.3-.5-.5-1.2-.8-2.2-.8-.8 0-1.6.1-2.4.4s-1.5.5-2.2.9l-1.1-2.5c.9-.5 1.8-.8 2.9-1s2-.4 3-.4c2.1 0 3.6.4 4.7 1.3s1.6 2.3 1.6 4.2V613h-2.8zm-5.1-2.4c1.2 0 2.3-.3 3-1s1.1-1.7 1.1-2.9v-1.4l-2.1.1c-1.6.1-2.8.3-3.5.8-.7.5-1.1 1.2-1.1 2.2 0 .7.2 1.3.6 1.7.5.3 1.1.5 2 .5zM1040.7 592.7c0-.6.2-1.1.5-1.4s.8-.5 1.4-.5c.6 0 1.1.2 1.4.5s.5.8.5 1.4c0 .6-.2 1-.5 1.4-.3.3-.8.5-1.4.5-.6 0-1.1-.2-1.4-.5-.3-.4-.5-.8-.5-1.4zm3.7 20.5h-3.4V597h3.4v16.2zM1063.6 613.2h-3.5v-10c0-1.2-.3-2.2-.8-2.8s-1.3-.9-2.4-.9c-1.5 0-2.5.4-3.2 1.3s-1 2.3-1 4.3v8.1h-3.4V597h2.7l.5 2.1h.2c.5-.8 1.2-1.4 2.1-1.8s1.9-.6 3-.6c3.9 0 5.8 2 5.8 5.9v10.6zM1068.1 592.7c0-.6.2-1.1.5-1.4s.8-.5 1.4-.5c.6 0 1.1.2 1.4.5s.5.8.5 1.4c0 .6-.2 1-.5 1.4-.3.3-.8.5-1.4.5-.6 0-1.1-.2-1.4-.5-.3-.4-.5-.8-.5-1.4zm3.7 20.5h-3.4V597h3.4v16.2zM1091 613.2h-3.5v-10c0-1.2-.3-2.2-.8-2.8s-1.3-.9-2.4-.9c-1.5 0-2.5.4-3.2 1.3s-1 2.3-1 4.3v8.1h-3.4V597h2.7l.5 2.1h.2c.5-.8 1.2-1.4 2.1-1.8s1.9-.6 3-.6c3.9 0 5.8 2 5.8 5.9v10.6zM1109.4 597v1.9l-2.8.5c.3.3.5.8.6 1.3s.2 1 .2 1.6c0 1.7-.6 3-1.7 3.9s-2.7 1.4-4.8 1.4c-.5 0-1 0-1.4-.1-.7.5-1.1 1-1.1 1.6 0 .4.2.6.5.8s1 .3 1.9.3h2.8c1.8 0 3.1.4 4.1 1.1s1.4 1.9 1.4 3.3c0 1.8-.8 3.3-2.3 4.2s-3.7 1.5-6.6 1.5c-2.2 0-3.9-.4-5.1-1.2s-1.7-1.9-1.7-3.3c0-1 .3-1.8.9-2.5.6-.7 1.5-1.2 2.6-1.4-.5-.2-.8-.5-1.1-.9-.3-.4-.4-.9-.4-1.4 0-.6.2-1.1.5-1.5s.8-.8 1.5-1.2c-.8-.4-1.5-.9-2-1.8-.5-.8-.8-1.8-.8-2.9 0-1.8.6-3.1 1.7-4.1s2.7-1.5 4.7-1.5c.5 0 .9 0 1.4.1s.9.1 1.1.2h5.9zm-12.7 18.7c0 .7.3 1.3 1 1.7s1.6.6 2.8.6c1.9 0 3.3-.3 4.2-.8s1.4-1.2 1.4-2.1c0-.7-.3-1.2-.8-1.5-.5-.3-1.4-.4-2.8-.4h-2.6c-1 0-1.8.2-2.4.7s-.8 1-.8 1.8zm1.5-13.5c0 1 .3 1.8.8 2.3s1.3.8 2.2.8c2 0 3-1.1 3-3.2 0-1.1-.2-1.9-.7-2.4-.5-.6-1.2-.9-2.2-.9-1 0-1.8.3-2.3.8s-.8 1.5-.8 2.6zM1123.3 608.6c0 1.6-.6 2.8-1.7 3.6-1.2.8-2.8 1.3-5 1.3s-3.9-.3-5.2-1v-3c1.9.9 3.7 1.3 5.3 1.3 2.1 0 3.2-.6 3.2-1.9 0-.4-.1-.8-.4-1s-.6-.6-1.2-.8-1.3-.6-2.2-1c-1.9-.7-3.1-1.4-3.8-2.2s-1-1.7-1-2.8c0-1.4.6-2.5 1.7-3.2s2.6-1.2 4.6-1.2c1.9 0 3.7.4 5.4 1.2l-1.1 2.6c-1.7-.7-3.2-1.1-4.4-1.1-1.8 0-2.7.5-2.7 1.6 0 .5.2.9.7 1.3s1.5.8 3.1 1.5c1.3.5 2.3 1 2.9 1.4s1.1.9 1.3 1.5c.4.4.5 1.1.5 1.9zM979.3 636.2h-3.9v13H971v-13h-2.5V634l2.5-1.2v-1.2c0-1.9.5-3.2 1.4-4.1s2.4-1.3 4.4-1.3c1.5 0 2.9.2 4.1.7l-1.1 3.3c-.9-.3-1.7-.4-2.5-.4-.6 0-1.1.2-1.4.6-.3.4-.4.9-.4 1.4v1h3.9v3.4zM991 632.5c.6 0 1.1 0 1.5.1l-.3 4.2c-.4-.1-.8-.1-1.3-.1-1.4 0-2.5.4-3.3 1.1s-1.2 1.8-1.2 3.1v8.3h-4.5v-16.4h3.4l.7 2.8h.2c.5-.9 1.2-1.7 2.1-2.2s1.7-.9 2.7-.9zM1002.9 649.5c-2.6 0-4.7-.7-6.2-2.2s-2.2-3.5-2.2-6.2.7-4.9 2.1-6.4 3.3-2.2 5.7-2.2c2.3 0 4.1.7 5.4 2s1.9 3.1 1.9 5.5v2.2H999c0 1.3.4 2.3 1.1 3s1.7 1.1 3 1.1c1 0 1.9-.1 2.8-.3s1.8-.5 2.8-1v3.5c-.8.4-1.6.7-2.5.9-.9 0-2 .1-3.3.1zm-.6-13.8c-.9 0-1.7.3-2.2.9-.5.6-.8 1.5-.9 2.6h6.3c0-1.1-.3-2-.9-2.6-.6-.6-1.4-.9-2.3-.9zM1013 628.6c0-1.5.8-2.2 2.4-2.2s2.4.7 2.4 2.2c0 .7-.2 1.2-.6 1.6-.4.4-1 .6-1.8.6-1.5 0-2.4-.8-2.4-2.2zm4.7 20.6h-4.5v-16.4h4.5v16.4zM1033.8 644.3c0 1.7-.6 3-1.8 3.8s-2.9 1.3-5.2 1.3c-1.2 0-2.2-.1-3-.2-.8-.2-1.6-.4-2.4-.7v-3.7c.8.4 1.8.7 2.8 1s2 .4 2.7.4c1.6 0 2.4-.5 2.4-1.4 0-.4-.1-.6-.3-.9-.2-.2-.6-.5-1.1-.7-.5-.3-1.2-.6-2.1-1-1.3-.5-2.2-1-2.8-1.5s-1-1-1.3-1.5c-.3-.6-.4-1.3-.4-2.1 0-1.5.6-2.6 1.7-3.4s2.7-1.2 4.8-1.2c2 0 3.9.4 5.8 1.3l-1.3 3.2c-.8-.4-1.6-.6-2.3-.9s-1.4-.3-2.2-.3c-1.3 0-2 .4-2 1.1 0 .4.2.7.6 1s1.4.7 2.8 1.3c1.3.5 2.2 1 2.8 1.5s1 1 1.3 1.6.5 1.2.5 2zM1044 649.5c-5.1 0-7.6-2.8-7.6-8.4 0-2.8.7-4.9 2.1-6.4 1.4-1.5 3.4-2.2 6-2.2 1.9 0 3.6.4 5.1 1.1l-1.3 3.5c-.7-.3-1.4-.5-2-.7-.6-.2-1.2-.3-1.8-.3-2.3 0-3.5 1.7-3.5 5 0 3.2 1.2 4.8 3.5 4.8.9 0 1.7-.1 2.4-.3.7-.2 1.5-.6 2.2-1.1v3.8c-.7.5-1.5.8-2.2 1s-1.8.2-2.9.2zM1067.8 649.2h-4.5v-9.6c0-2.4-.9-3.5-2.6-3.5-1.2 0-2.2.4-2.7 1.3s-.8 2.2-.8 4.1v7.7h-4.5v-22.8h4.5v4.6c0 .4 0 1.2-.1 2.5l-.1 1.3h.2c1-1.6 2.6-2.4 4.7-2.4 1.9 0 3.4.5 4.4 1.6s1.5 2.5 1.5 4.5v10.7zM1082.8 649.2l-.9-2.2h-.1c-.8.9-1.5 1.6-2.3 2-.8.4-1.8.5-3.1.5-1.6 0-2.8-.4-3.7-1.3s-1.4-2.2-1.4-3.8c0-1.7.6-3 1.8-3.8 1.2-.8 3-1.3 5.5-1.4l2.8-.1v-.7c0-1.7-.8-2.5-2.5-2.5-1.3 0-2.8.4-4.6 1.2l-1.5-3c1.9-1 4-1.5 6.3-1.5 2.2 0 3.9.5 5.1 1.4s1.8 2.4 1.8 4.4v10.9h-3.2zm-1.3-7.6-1.7.1c-1.3 0-2.3.3-2.9.7s-1 1.1-1 2c0 1.3.7 1.9 2.2 1.9 1 0 1.9-.3 2.5-.9s.9-1.4.9-2.4v-1.4zM1095 649.2h-4.5v-22.8h4.5v22.8zM1106.6 645.9c.8 0 1.7-.2 2.8-.5v3.3c-1.1.5-2.5.7-4.1.7-1.8 0-3.1-.5-3.9-1.4-.8-.9-1.2-2.3-1.2-4.1V636h-2.1v-1.9l2.5-1.5 1.3-3.5h2.9v3.5h4.6v3.4h-4.6v7.9c0 .6.2 1.1.5 1.4s.7.6 1.3.6zM1120.2 649.5c-2.6 0-4.7-.7-6.2-2.2s-2.2-3.5-2.2-6.2.7-4.9 2.1-6.4 3.3-2.2 5.7-2.2c2.3 0 4.1.7 5.4 2s1.9 3.1 1.9 5.5v2.2h-10.6c0 1.3.4 2.3 1.1 3s1.7 1.1 3 1.1c1 0 1.9-.1 2.8-.3s1.8-.5 2.8-1v3.5c-.8.4-1.6.7-2.5.9-1 0-2.1.1-3.3.1zm-.7-13.8c-.9 0-1.7.3-2.2.9-.5.6-.8 1.5-.9 2.6h6.3c0-1.1-.3-2-.9-2.6-.6-.6-1.3-.9-2.3-.9zM1145.6 649.2h-4.5v-9.6c0-1.2-.2-2.1-.6-2.7-.4-.6-1.1-.9-2-.9-1.2 0-2.2.4-2.7 1.3-.6.8-.8 2.2-.8 4.2v7.7h-4.5v-16.4h3.4l.6 2.1h.2c.5-.8 1.2-1.4 2.1-1.8s1.9-.6 3-.6c1.9 0 3.3.5 4.3 1.5s1.5 2.5 1.5 4.5v10.7z"/></g><g><path data-cppathid="10043" d="M1058.9 419.6v46.6" class="st7"/><path data-cppathid="10044" d="m1043 461.6 15.9 27.6 16-27.6z"/></g><path data-cppathid="10045" d="M132.3 220h156.1v89.4H132.3z" class="st10"/><circle data-cppathid="10046" r="20.3" cy="268.4" cx="211.3" class="st12"/><path data-cppathid="10047" d="M211.3 283.6c-8.4 0-15.2-6.8-15.2-15.2s6.8-15.2 15.2-15.2c8.4 0 15.2 6.8 15.2 15.2s-6.7 15.2-15.2 15.2zm0 2.2c9.6 0 17.4-7.8 17.4-17.4S221 251 211.3 251s-17.4 7.8-17.4 17.4 7.8 17.4 17.4 17.4z" class="st14"/><path data-cppathid="10048" d="M207.6 262c.4-.2.8-.2 1.1.1l7.6 5.4c.5.3.6 1 .3 1.5l-.3.3-7.6 5.4c-.5.3-1.2.2-1.5-.3-.1-.2-.2-.4-.2-.6v-10.9c0-.4.2-.7.6-.9z" class="st14"/><g><path data-cppathid="10049" d="M1058.9 213c-8.4 0-15.2-6.8-15.2-15.2s6.8-15.2 15.2-15.2 15.2 6.8 15.2 15.2-6.8 15.2-15.2 15.2zm0 2.1c9.6 0 17.4-7.8 17.4-17.4s-7.8-17.4-17.4-17.4-17.4 7.8-17.4 17.4 7.8 17.4 17.4 17.4z" class="st15"/><path data-cppathid="10050" d="M1055.2 191.3c.4-.2.8-.2 1.1.1l7.6 5.4c.5.3.6 1 .3 1.5l-.3.3-7.6 5.4c-.5.3-1.2.2-1.5-.3-.1-.2-.2-.4-.2-.6v-10.9c0-.3.2-.7.6-.9z" class="st15"/></g><path data-cppathid="10051" d="M-.6 720h430v175H-.6z" style="fill:#f7f7f7"/><g><path data-cppathid="10052" d="M149.9 811.5h-2.1v-8.4h-9.4v8.4h-2.1v-17.8h2.1v7.6h9.4v-7.6h2.1v17.8zM162.7 811.5l-.4-1.9h-.1c-.7.8-1.3 1.4-2 1.7-.7.3-1.5.4-2.5.4-1.3 0-2.4-.3-3.1-1-.8-.7-1.1-1.7-1.1-2.9 0-2.7 2.2-4.1 6.5-4.2l2.3-.1v-.8c0-1.1-.2-1.8-.7-2.3-.5-.5-1.2-.8-2.2-.8-1.1 0-2.4.3-3.8 1l-.6-1.6c.7-.4 1.4-.6 2.2-.8.8-.2 1.6-.3 2.4-.3 1.6 0 2.8.4 3.5 1.1.8.7 1.2 1.8 1.2 3.4v9.1h-1.6zm-4.6-1.4c1.3 0 2.3-.3 3-1 .7-.7 1.1-1.7 1.1-2.9V805l-2 .1c-1.6.1-2.8.3-3.5.8-.7.4-1.1 1.1-1.1 2.1 0 .7.2 1.3.7 1.7.4.2 1 .4 1.8.4zM170.3 798.1v8.7c0 1.1.2 1.9.7 2.4.5.5 1.3.8 2.3.8 1.4 0 2.4-.4 3.1-1.1.6-.8 1-2 1-3.7v-7h2v13.4h-1.7l-.3-1.8h-.1c-.4.7-1 1.2-1.7 1.5-.7.4-1.6.5-2.5.5-1.6 0-2.8-.4-3.7-1.2-.8-.8-1.2-2-1.2-3.7v-8.8h2.1zM190 811.7c-.9 0-1.7-.2-2.4-.5s-1.3-.8-1.8-1.5h-.1c.1.8.1 1.5.1 2.2v5.5h-2V798h1.6l.3 1.8h.1c.5-.7 1.1-1.3 1.8-1.6.7-.3 1.5-.5 2.4-.5 1.8 0 3.1.6 4.1 1.8 1 1.2 1.4 2.9 1.4 5.1 0 2.2-.5 3.9-1.5 5.1-.9 1.4-2.3 2-4 2zm-.3-12.1c-1.4 0-2.4.4-3 1.1s-.9 2-.9 3.6v.5c0 1.9.3 3.2.9 4 .6.8 1.6 1.2 3 1.2 1.2 0 2.1-.5 2.7-1.4.7-.9 1-2.2 1-3.9 0-1.7-.3-2.9-1-3.8-.6-.9-1.6-1.3-2.7-1.3zM203.4 810.1c.4 0 .7 0 1-.1.3-.1.6-.1.8-.2v1.5c-.2.1-.5.2-1 .3-.4.1-.8.1-1.2.1-2.6 0-3.9-1.4-3.9-4.1v-8h-1.9v-1l1.9-.8.9-2.9h1.2v3.1h3.9v1.6h-3.9v7.9c0 .8.2 1.4.6 1.9.4.5.9.7 1.6.7zM217 809.7h-.1c-.9 1.4-2.3 2-4.2 2-1.8 0-3.1-.6-4.1-1.8-1-1.2-1.5-2.9-1.5-5.1 0-2.2.5-3.9 1.5-5.1s2.3-1.8 4.1-1.8c1.8 0 3.2.7 4.2 2h.2l-.1-1V792.6h2v19h-1.6l-.4-1.9zm-4.1.3c1.4 0 2.4-.4 3-1.1.6-.8.9-2 .9-3.6v-.4c0-1.9-.3-3.2-.9-4.1-.6-.8-1.6-1.2-3-1.2-1.2 0-2.1.5-2.7 1.4-.6.9-.9 2.2-.9 3.9 0 1.7.3 3 .9 3.9.6.8 1.5 1.2 2.7 1.2zM234.7 804.8c0 2.2-.5 3.9-1.6 5.1s-2.6 1.8-4.6 1.8c-1.2 0-2.3-.3-3.2-.8-.9-.6-1.6-1.4-2.1-2.4s-.8-2.3-.8-3.7c0-2.2.5-3.9 1.6-5.1 1.1-1.2 2.6-1.8 4.5-1.8s3.4.6 4.5 1.9c1.2 1.2 1.7 2.9 1.7 5zm-10.2 0c0 1.7.3 3 1 3.9.7.9 1.7 1.3 3 1.3s2.3-.4 3-1.3c.7-.9 1-2.2 1-3.9 0-1.7-.3-3-1-3.9-.7-.9-1.7-1.3-3-1.3s-2.3.4-3 1.3c-.6.9-1 2.2-1 3.9zM255.3 811.5v-8.7c0-1.1-.2-1.9-.7-2.4-.5-.5-1.2-.8-2.1-.8-1.3 0-2.2.4-2.8 1.1-.6.7-.9 1.8-.9 3.3v7.5h-2v-8.7c0-1.1-.2-1.9-.7-2.4-.5-.5-1.2-.8-2.1-.8-1.3 0-2.2.4-2.8 1.1-.6.8-.9 2-.9 3.7v7h-2V798h1.6l.3 1.8h.1c.4-.7.9-1.2 1.6-1.5.7-.4 1.5-.5 2.3-.5 2.1 0 3.5.8 4.1 2.3h.1c.4-.7 1-1.3 1.7-1.7s1.6-.6 2.6-.6c1.5 0 2.6.4 3.4 1.2.8.8 1.1 2 1.1 3.7v8.7h-1.9zM269.8 811.5l-.4-1.9h-.1c-.7.8-1.3 1.4-2 1.7-.7.3-1.5.4-2.5.4-1.3 0-2.4-.3-3.1-1-.8-.7-1.1-1.7-1.1-2.9 0-2.7 2.2-4.1 6.5-4.2l2.3-.1v-.8c0-1.1-.2-1.8-.7-2.3-.5-.5-1.2-.8-2.2-.8-1.1 0-2.4.3-3.8 1l-.7-1.6c.7-.4 1.4-.6 2.2-.8.8-.2 1.6-.3 2.4-.3 1.6 0 2.8.4 3.5 1.1.8.7 1.2 1.8 1.2 3.4v9.1h-1.5zm-4.6-1.4c1.3 0 2.3-.3 3-1 .7-.7 1.1-1.7 1.1-2.9V805l-2 .1c-1.6.1-2.8.3-3.5.8-.7.4-1.1 1.1-1.1 2.1 0 .7.2 1.3.7 1.7.4.2 1 .4 1.8.4zM275.3 794.5c0-.5.1-.8.3-1 .2-.2.5-.3.9-.3.3 0 .6.1.8.3.2.2.4.6.4 1 0 .5-.1.8-.4 1-.2.2-.5.3-.8.3-.3 0-.6-.1-.9-.3-.2-.2-.3-.5-.3-1zm2.2 17h-2v-13.4h2v13.4zM290.9 811.5v-8.7c0-1.1-.2-1.9-.7-2.4-.5-.5-1.3-.8-2.3-.8-1.4 0-2.4.4-3.1 1.1-.7.8-1 2-1 3.7v7h-2V798h1.6l.3 1.8h.1c.4-.7 1-1.2 1.7-1.5.7-.4 1.6-.5 2.5-.5 1.6 0 2.8.4 3.6 1.2.8.8 1.2 2 1.2 3.7v8.7h-1.9zM143.9 824.5c0-.5.1-.8.3-1 .2-.2.5-.3.9-.3.3 0 .6.1.8.3.2.2.4.6.4 1 0 .5-.1.8-.4 1-.2.2-.5.3-.8.3-.3 0-.6-.1-.9-.3-.2-.2-.3-.5-.3-1zm2.2 17h-2v-13.4h2v13.4zM159.5 841.5v-8.7c0-1.1-.2-1.9-.7-2.4-.5-.5-1.3-.8-2.3-.8-1.4 0-2.4.4-3.1 1.1-.6.8-1 2-1 3.8v7h-2v-19h2v5.8c0 .7 0 1.3-.1 1.7h.1c.4-.6 1-1.1 1.7-1.5.7-.4 1.6-.6 2.5-.6 1.6 0 2.9.4 3.7 1.2.8.8 1.2 2 1.2 3.7v8.7h-2zM171.8 827.9c.6 0 1.1 0 1.6.1l-.3 1.9c-.6-.1-1-.2-1.5-.2-1.1 0-2 .4-2.8 1.3-.8.9-1.2 2-1.2 3.3v7.2h-2v-13.4h1.7l.2 2.5h.1c.5-.9 1.1-1.5 1.8-2 .8-.5 1.6-.7 2.4-.7zM181.6 841.7c-2 0-3.5-.6-4.7-1.8-1.1-1.2-1.7-2.9-1.7-5 0-2.2.5-3.9 1.6-5.1 1.1-1.3 2.5-1.9 4.3-1.9 1.7 0 3 .6 4 1.7s1.5 2.6 1.5 4.4v1.3h-9.2c0 1.6.4 2.8 1.2 3.6.8.8 1.8 1.2 3.2 1.2 1.4 0 2.9-.3 4.3-.9v1.8c-.7.3-1.4.5-2 .7h-2.5zm-.6-12.1c-1.1 0-1.9.3-2.6 1-.6.7-1 1.7-1.1 2.9h7c0-1.3-.3-2.3-.9-2.9-.5-.7-1.3-1-2.4-1zM188.8 835.7v-1.9h6v1.9h-6zM206.6 837.8c0 1.2-.5 2.2-1.4 2.9-.9.7-2.2 1-3.9 1-1.8 0-3.2-.3-4.2-.8V839c.6.3 1.3.6 2.1.8.7.2 1.4.3 2.1.3 1.1 0 1.9-.2 2.4-.5.6-.3.9-.9.9-1.5 0-.5-.2-1-.7-1.3-.5-.4-1.3-.8-2.6-1.3-1.2-.5-2.1-.9-2.7-1.2-.5-.3-.9-.7-1.2-1.2-.3-.4-.4-1-.4-1.6 0-1.1.4-2 1.3-2.6.9-.6 2.1-.9 3.6-.9 1.4 0 2.8.3 4.2.9l-.7 1.6c-1.3-.6-2.6-.8-3.6-.8s-1.7.2-2.2.5-.7.7-.7 1.2c0 .4.1.7.3.9.2.3.5.5.9.7.4.2 1.2.6 2.3 1 1.6.6 2.7 1.2 3.2 1.7.7.5 1 1.3 1 2.1zM215.6 841.7c-2 0-3.5-.6-4.7-1.8-1.1-1.2-1.7-2.9-1.7-5 0-2.2.5-3.9 1.6-5.1 1.1-1.3 2.5-1.9 4.3-1.9 1.7 0 3 .6 4 1.7s1.5 2.6 1.5 4.4v1.3h-9.2c0 1.6.4 2.8 1.2 3.6.8.8 1.8 1.2 3.2 1.2 1.4 0 2.9-.3 4.3-.9v1.8c-.7.3-1.4.5-2 .7h-2.5zm-.6-12.1c-1.1 0-1.9.3-2.6 1-.6.7-1 1.7-1.1 2.9h7c0-1.3-.3-2.3-.9-2.9-.5-.7-1.3-1-2.4-1zM223.8 824.5c0-.5.1-.8.3-1 .2-.2.5-.3.9-.3.3 0 .6.1.8.3.2.2.4.6.4 1 0 .5-.1.8-.4 1-.2.2-.5.3-.8.3-.3 0-.6-.1-.9-.3-.2-.2-.3-.5-.3-1zm2.2 17h-2v-13.4h2v13.4zM234.6 840.1c.4 0 .7 0 1-.1.3-.1.6-.1.8-.2v1.5c-.2.1-.5.2-1 .3-.4.1-.8.1-1.2.1-2.6 0-3.9-1.4-3.9-4.1v-8h-1.9v-1l1.9-.8.9-2.9h1.2v3.1h3.9v1.6h-3.9v7.9c0 .8.2 1.4.6 1.9.4.5.9.7 1.6.7zM244.7 841.7c-2 0-3.5-.6-4.7-1.8-1.1-1.2-1.7-2.9-1.7-5 0-2.2.5-3.9 1.6-5.1 1.1-1.3 2.5-1.9 4.3-1.9 1.7 0 3 .6 4 1.7s1.5 2.6 1.5 4.4v1.3h-9.2c0 1.6.4 2.8 1.2 3.6.8.8 1.8 1.2 3.2 1.2 1.4 0 2.9-.3 4.3-.9v1.8c-.7.3-1.4.5-2 .7h-2.5zm-.5-12.1c-1.1 0-1.9.3-2.6 1-.6.7-1 1.7-1.1 2.9h7c0-1.3-.3-2.3-.9-2.9-.5-.7-1.4-1-2.4-1zM252.8 840.2c0-.5.1-1 .4-1.2.2-.3.6-.4 1.1-.4.5 0 .8.1 1.1.4.3.3.4.7.4 1.2s-.1.9-.4 1.2-.6.4-1.1.4c-.4 0-.8-.1-1-.4-.3-.2-.5-.6-.5-1.2zM268.9 839.7h-.1c-.9 1.4-2.3 2-4.2 2-1.8 0-3.1-.6-4.1-1.8-1-1.2-1.5-2.9-1.5-5.1 0-2.2.5-3.9 1.5-5.1s2.3-1.8 4.1-1.8c1.8 0 3.2.7 4.2 2h.2l-.1-1V822.6h2v19h-1.6l-.4-1.9zm-4.1.3c1.4 0 2.4-.4 3-1.1.6-.8.9-2 .9-3.6v-.4c0-1.9-.3-3.2-.9-4.1-.6-.8-1.6-1.2-3-1.2-1.2 0-2.1.5-2.7 1.4-.6.9-.9 2.2-.9 3.9 0 1.7.3 3 .9 3.9.6.8 1.5 1.2 2.7 1.2zM280.7 841.7c-2 0-3.5-.6-4.7-1.8-1.1-1.2-1.7-2.9-1.7-5 0-2.2.5-3.9 1.6-5.1 1.1-1.3 2.5-1.9 4.3-1.9 1.7 0 3 .6 4 1.7s1.5 2.6 1.5 4.4v1.3h-9.2c0 1.6.4 2.8 1.2 3.6.8.8 1.8 1.2 3.2 1.2 1.4 0 2.9-.3 4.3-.9v1.8c-.7.3-1.4.5-2 .7h-2.5zm-.5-12.1c-1.1 0-1.9.3-2.6 1-.6.7-1 1.7-1.1 2.9h7c0-1.3-.3-2.3-.9-2.9-.5-.7-1.4-1-2.4-1z"/></g><g><path data-cppathid="10053" d="M800.1 806.8c0 1.6-.6 2.8-1.7 3.7s-2.7 1.3-4.6 1.3c-2.1 0-3.7-.3-4.9-.8v-2c.7.3 1.5.6 2.4.7.9.2 1.7.3 2.6.3 1.4 0 2.4-.3 3.1-.8.7-.5 1-1.3 1-2.2 0-.6-.1-1.1-.4-1.5-.2-.4-.7-.8-1.2-1.1-.6-.3-1.5-.7-2.7-1.1-1.7-.6-2.8-1.3-3.6-2.1-.7-.8-1.1-1.9-1.1-3.2 0-1.4.5-2.5 1.5-3.3 1-.8 2.4-1.2 4.1-1.2 1.8 0 3.4.3 4.9 1l-.6 1.8c-1.5-.6-2.9-.9-4.3-.9-1.1 0-2 .2-2.6.7-.6.5-.9 1.1-.9 2 0 .6.1 1.1.3 1.5.2.4.6.8 1.2 1.1.5.3 1.4.7 2.5 1.1 1.9.7 3.2 1.4 3.9 2.1.8.6 1.1 1.6 1.1 2.9zM805.4 798.1v8.7c0 1.1.2 1.9.7 2.4.5.5 1.3.8 2.3.8 1.4 0 2.4-.4 3.1-1.1.6-.8 1-2 1-3.7v-7h2v13.4h-1.7l-.3-1.8h-.1c-.4.7-1 1.2-1.7 1.5-.7.4-1.6.5-2.5.5-1.6 0-2.8-.4-3.7-1.2-.8-.8-1.2-2-1.2-3.7v-8.8h2.1zM825.1 797.9c1.8 0 3.1.6 4.1 1.8 1 1.2 1.5 2.9 1.5 5.1s-.5 3.9-1.5 5.1c-1 1.2-2.3 1.8-4.1 1.8-.9 0-1.7-.2-2.4-.5s-1.3-.8-1.8-1.5h-.1l-.4 1.7h-1.5v-19h2v4.6c0 1 0 2-.1 2.8h.1c.9-1.2 2.3-1.9 4.2-1.9zm-.3 1.7c-1.4 0-2.4.4-3 1.2-.6.8-.9 2.1-.9 4s.3 3.2.9 4 1.6 1.2 3 1.2c1.2 0 2.2-.5 2.8-1.4s.9-2.2.9-3.9c0-1.7-.3-3-.9-3.9s-1.6-1.2-2.8-1.2zM843.3 809.7h-.1c-.9 1.4-2.3 2-4.2 2-1.8 0-3.1-.6-4.1-1.8-1-1.2-1.5-2.9-1.5-5.1 0-2.2.5-3.9 1.5-5.1s2.3-1.8 4.1-1.8c1.8 0 3.2.7 4.2 2h.2l-.1-1V792.6h2v19h-1.6l-.4-1.9zm-4.1.3c1.4 0 2.4-.4 3-1.1.6-.8.9-2 .9-3.6v-.4c0-1.9-.3-3.2-.9-4.1-.6-.8-1.6-1.2-3-1.2-1.2 0-2.1.5-2.7 1.4-.6.9-.9 2.2-.9 3.9 0 1.7.3 3 .9 3.9s1.5 1.2 2.7 1.2zM861 804.8c0 2.2-.5 3.9-1.6 5.1s-2.6 1.8-4.6 1.8c-1.2 0-2.3-.3-3.2-.8-.9-.6-1.6-1.4-2.1-2.4s-.8-2.3-.8-3.7c0-2.2.5-3.9 1.6-5.1s2.6-1.8 4.5-1.8 3.4.6 4.5 1.9c1.2 1.2 1.7 2.9 1.7 5zm-10.2 0c0 1.7.3 3 1 3.9.7.9 1.7 1.3 3 1.3s2.3-.4 3-1.3c.7-.9 1-2.2 1-3.9 0-1.7-.3-3-1-3.9-.7-.9-1.7-1.3-3-1.3s-2.3.4-3 1.3c-.6.9-1 2.2-1 3.9zM881.6 811.5v-8.7c0-1.1-.2-1.9-.7-2.4-.5-.5-1.2-.8-2.1-.8-1.3 0-2.2.4-2.8 1.1s-.9 1.8-.9 3.3v7.5h-2v-8.7c0-1.1-.2-1.9-.7-2.4-.5-.5-1.2-.8-2.1-.8-1.3 0-2.2.4-2.8 1.1-.6.8-.9 2-.9 3.7v7h-2V798h1.6l.3 1.8h.1c.4-.7.9-1.2 1.6-1.5.7-.4 1.5-.5 2.3-.5 2.1 0 3.5.8 4.1 2.3h.1c.4-.7 1-1.3 1.7-1.7s1.6-.6 2.6-.6c1.5 0 2.6.4 3.4 1.2.8.8 1.1 2 1.1 3.7v8.7h-1.9zM896 811.5l-.4-1.9h-.1c-.7.8-1.3 1.4-2 1.7-.7.3-1.5.4-2.5.4-1.3 0-2.4-.3-3.1-1s-1.1-1.7-1.1-2.9c0-2.7 2.2-4.1 6.5-4.2l2.3-.1v-.8c0-1.1-.2-1.8-.7-2.3-.5-.5-1.2-.8-2.2-.8-1.1 0-2.4.3-3.8 1l-.6-1.6c.7-.4 1.4-.6 2.2-.8.8-.2 1.6-.3 2.4-.3 1.6 0 2.8.4 3.5 1.1.8.7 1.2 1.8 1.2 3.4v9.1H896zm-4.5-1.4c1.3 0 2.3-.3 3-1 .7-.7 1.1-1.7 1.1-2.9V805l-2 .1c-1.6.1-2.8.3-3.5.8-.7.4-1.1 1.1-1.1 2.1 0 .7.2 1.3.7 1.7s1 .4 1.8.4zM901.6 794.5c0-.5.1-.8.3-1s.5-.3.9-.3c.3 0 .6.1.8.3.2.2.4.6.4 1 0 .5-.1.8-.4 1-.2.2-.5.3-.8.3-.3 0-.6-.1-.9-.3-.2-.2-.3-.5-.3-1zm2.2 17h-2v-13.4h2v13.4zM917.2 811.5v-8.7c0-1.1-.2-1.9-.7-2.4-.5-.5-1.3-.8-2.3-.8-1.4 0-2.4.4-3.1 1.1s-1 2-1 3.7v7h-2V798h1.6l.3 1.8h.1c.4-.7 1-1.2 1.7-1.5.7-.4 1.6-.5 2.5-.5 1.6 0 2.8.4 3.6 1.2s1.2 2 1.2 3.7v8.7h-1.9zM747.7 841.5v-8.7c0-1.1-.2-1.9-.7-2.4-.5-.5-1.2-.8-2.1-.8-1.3 0-2.2.4-2.8 1.1-.6.7-.9 1.8-.9 3.3v7.5h-2v-8.7c0-1.1-.2-1.9-.7-2.4-.5-.5-1.2-.8-2.1-.8-1.3 0-2.2.4-2.8 1.1-.6.8-.9 2-.9 3.7v7h-2V828h1.6l.3 1.8h.1c.4-.7.9-1.2 1.6-1.5.7-.4 1.5-.5 2.3-.5 2.1 0 3.5.8 4.1 2.3h.1c.4-.7 1-1.3 1.7-1.7s1.6-.6 2.6-.6c1.5 0 2.6.4 3.4 1.2s1.1 2 1.1 3.7v8.7h-1.9zM759.6 841.7c-2 0-3.5-.6-4.7-1.8s-1.7-2.9-1.7-5c0-2.2.5-3.9 1.6-5.1 1.1-1.3 2.5-1.9 4.3-1.9 1.7 0 3 .6 4 1.7s1.5 2.6 1.5 4.4v1.3h-9.2c0 1.6.4 2.8 1.2 3.6.8.8 1.8 1.2 3.2 1.2 1.4 0 2.9-.3 4.3-.9v1.8c-.7.3-1.4.5-2 .7h-2.5zm-.6-12.1c-1.1 0-1.9.3-2.6 1-.6.7-1 1.7-1.1 2.9h7c0-1.3-.3-2.3-.9-2.9-.5-.7-1.3-1-2.4-1zM785 841.5v-8.7c0-1.1-.2-1.9-.7-2.4-.5-.5-1.2-.8-2.1-.8-1.3 0-2.2.4-2.8 1.1-.6.7-.9 1.8-.9 3.3v7.5h-2v-8.7c0-1.1-.2-1.9-.7-2.4-.5-.5-1.2-.8-2.1-.8-1.3 0-2.2.4-2.8 1.1-.6.8-.9 2-.9 3.7v7h-2V828h1.6l.3 1.8h.1c.4-.7.9-1.2 1.6-1.5.7-.4 1.5-.5 2.3-.5 2.1 0 3.5.8 4.1 2.3h.1c.4-.7 1-1.3 1.7-1.7s1.6-.6 2.6-.6c1.5 0 2.6.4 3.4 1.2s1.1 2 1.1 3.7v8.7H785zM797.4 827.9c1.8 0 3.1.6 4.1 1.8s1.5 2.9 1.5 5.1-.5 3.9-1.5 5.1c-1 1.2-2.3 1.8-4.1 1.8-.9 0-1.7-.2-2.4-.5s-1.3-.8-1.8-1.5h-.1l-.4 1.7h-1.5v-19h2v4.6c0 1 0 2-.1 2.8h.1c1-1.2 2.4-1.9 4.2-1.9zm-.3 1.7c-1.4 0-2.4.4-3 1.2-.6.8-.9 2.1-.9 4s.3 3.2.9 4c.6.8 1.6 1.2 3 1.2 1.2 0 2.2-.5 2.8-1.4s.9-2.2.9-3.9c0-1.7-.3-3-.9-3.9s-1.5-1.2-2.8-1.2zM812.2 841.7c-2 0-3.5-.6-4.7-1.8-1.1-1.2-1.7-2.9-1.7-5 0-2.2.5-3.9 1.6-5.1 1.1-1.3 2.5-1.9 4.3-1.9 1.7 0 3 .6 4 1.7s1.5 2.6 1.5 4.4v1.3H808c0 1.6.4 2.8 1.2 3.6.8.8 1.8 1.2 3.2 1.2 1.4 0 2.9-.3 4.3-.9v1.8c-.7.3-1.4.5-2 .7h-2.5zm-.6-12.1c-1.1 0-1.9.3-2.6 1-.6.7-1 1.7-1.1 2.9h7c0-1.3-.3-2.3-.9-2.9-.5-.7-1.3-1-2.4-1zM826.7 827.9c.6 0 1.1 0 1.6.1l-.3 1.9c-.6-.1-1-.2-1.5-.2-1.1 0-2 .4-2.8 1.3-.8.9-1.2 2-1.2 3.3v7.2h-2v-13.4h1.7l.2 2.5h.1c.5-.9 1.1-1.5 1.8-2s1.5-.7 2.4-.7zM830.5 840.2c0-.5.1-1 .4-1.2.2-.3.6-.4 1.1-.4.5 0 .8.1 1.1.4.3.3.4.7.4 1.2s-.1.9-.4 1.2-.6.4-1.1.4c-.4 0-.8-.1-1-.4-.4-.2-.5-.6-.5-1.2zM837.2 824.5c0-.5.1-.8.3-1 .2-.2.5-.3.9-.3.3 0 .6.1.8.3s.4.6.4 1c0 .5-.1.8-.4 1-.2.2-.5.3-.8.3-.3 0-.6-.1-.9-.3-.1-.2-.3-.5-.3-1zm2.2 17h-2v-13.4h2v13.4zM852.9 841.5v-8.7c0-1.1-.2-1.9-.7-2.4s-1.3-.8-2.3-.8c-1.4 0-2.4.4-3.1 1.1-.6.8-1 2-1 3.8v7h-2v-19h2v5.8c0 .7 0 1.3-.1 1.7h.1c.4-.6 1-1.1 1.7-1.5.7-.4 1.6-.6 2.5-.6 1.6 0 2.9.4 3.7 1.2.8.8 1.2 2 1.2 3.7v8.7h-2zM865.2 827.9c.6 0 1.1 0 1.6.1l-.3 1.9c-.6-.1-1-.2-1.5-.2-1.1 0-2 .4-2.8 1.3-.8.9-1.2 2-1.2 3.3v7.2h-2v-13.4h1.7l.2 2.5h.1c.5-.9 1.1-1.5 1.8-2 .8-.5 1.5-.7 2.4-.7zM874.9 841.7c-2 0-3.5-.6-4.7-1.8s-1.7-2.9-1.7-5c0-2.2.5-3.9 1.6-5.1 1.1-1.3 2.5-1.9 4.3-1.9 1.7 0 3 .6 4 1.7s1.5 2.6 1.5 4.4v1.3h-9.2c0 1.6.4 2.8 1.2 3.6.8.8 1.8 1.2 3.2 1.2 1.4 0 2.9-.3 4.3-.9v1.8c-.7.3-1.4.5-2 .7h-2.5zm-.5-12.1c-1.1 0-1.9.3-2.6 1-.6.7-1 1.7-1.1 2.9h7c0-1.3-.3-2.3-.9-2.9-.5-.7-1.4-1-2.4-1zM882.2 835.7v-1.9h6v1.9h-6zM900 837.8c0 1.2-.5 2.2-1.4 2.9-.9.7-2.2 1-3.9 1-1.8 0-3.2-.3-4.2-.8V839c.6.3 1.3.6 2.1.8.7.2 1.4.3 2.1.3 1.1 0 1.9-.2 2.4-.5.6-.3.9-.9.9-1.5 0-.5-.2-1-.7-1.3-.5-.4-1.3-.8-2.6-1.3-1.2-.5-2.1-.9-2.7-1.2-.5-.3-.9-.7-1.2-1.2-.3-.4-.4-1-.4-1.6 0-1.1.4-2 1.3-2.6.9-.6 2.1-.9 3.6-.9 1.4 0 2.8.3 4.2.9l-.7 1.6c-1.3-.6-2.6-.8-3.7-.8-1 0-1.7.2-2.2.5s-.7.7-.7 1.2c0 .4.1.7.3.9.2.3.5.5.9.7.4.2 1.2.6 2.3 1 1.6.6 2.7 1.2 3.2 1.7.8.5 1.1 1.3 1.1 2.1zM908.9 841.7c-2 0-3.5-.6-4.7-1.8-1.1-1.2-1.7-2.9-1.7-5 0-2.2.5-3.9 1.6-5.1 1.1-1.3 2.5-1.9 4.3-1.9 1.7 0 3 .6 4 1.7s1.5 2.6 1.5 4.4v1.3h-9.2c0 1.6.4 2.8 1.2 3.6.8.8 1.8 1.2 3.2 1.2 1.4 0 2.9-.3 4.3-.9v1.8c-.7.3-1.4.5-2 .7h-2.5zm-.5-12.1c-1.1 0-1.9.3-2.6 1-.6.7-1 1.7-1.1 2.9h7c0-1.3-.3-2.3-.9-2.9-.5-.7-1.4-1-2.4-1zM917.1 824.5c0-.5.1-.8.3-1s.5-.3.9-.3c.3 0 .6.1.8.3.2.2.4.6.4 1 0 .5-.1.8-.4 1-.2.2-.5.3-.8.3-.3 0-.6-.1-.9-.3-.2-.2-.3-.5-.3-1zm2.2 17h-2v-13.4h2v13.4zM928 840.1c.4 0 .7 0 1-.1.3-.1.6-.1.8-.2v1.5c-.2.1-.5.2-1 .3-.4.1-.8.1-1.2.1-2.6 0-3.9-1.4-3.9-4.1v-8h-1.9v-1l1.9-.8.9-2.9h1.2v3.1h3.9v1.6h-3.9v7.9c0 .8.2 1.4.6 1.9.4.5.9.7 1.6.7zM938.1 841.7c-2 0-3.5-.6-4.7-1.8-1.1-1.2-1.7-2.9-1.7-5 0-2.2.5-3.9 1.6-5.1 1.1-1.3 2.5-1.9 4.3-1.9 1.7 0 3 .6 4 1.7s1.5 2.6 1.5 4.4v1.3h-9.2c0 1.6.4 2.8 1.2 3.6.8.8 1.8 1.2 3.2 1.2 1.4 0 2.9-.3 4.3-.9v1.8c-.7.3-1.4.5-2 .7h-2.5zm-.5-12.1c-1.1 0-1.9.3-2.6 1-.6.7-1 1.7-1.1 2.9h7c0-1.3-.3-2.3-.9-2.9-.6-.7-1.4-1-2.4-1zM946.2 840.2c0-.5.1-1 .4-1.2.2-.3.6-.4 1.1-.4.5 0 .8.1 1.1.4.3.3.4.7.4 1.2s-.1.9-.4 1.2-.6.4-1.1.4c-.4 0-.8-.1-1-.4-.4-.2-.5-.6-.5-1.2zM962.2 839.7h-.1c-.9 1.4-2.3 2-4.2 2-1.8 0-3.1-.6-4.1-1.8-1-1.2-1.5-2.9-1.5-5.1 0-2.2.5-3.9 1.5-5.1s2.3-1.8 4.1-1.8c1.8 0 3.2.7 4.2 2h.2l-.1-1V822.6h2v19h-1.6l-.4-1.9zm-4 .3c1.4 0 2.4-.4 3-1.1.6-.8.9-2 .9-3.6v-.4c0-1.9-.3-3.2-.9-4.1-.6-.8-1.6-1.2-3-1.2-1.2 0-2.1.5-2.7 1.4-.6.9-.9 2.2-.9 3.9 0 1.7.3 3 .9 3.9.6.8 1.5 1.2 2.7 1.2zM974.1 841.7c-2 0-3.5-.6-4.7-1.8s-1.7-2.9-1.7-5c0-2.2.5-3.9 1.6-5.1 1.1-1.3 2.5-1.9 4.3-1.9 1.7 0 3 .6 4 1.7s1.5 2.6 1.5 4.4v1.3h-9.2c0 1.6.4 2.8 1.2 3.6.8.8 1.8 1.2 3.2 1.2 1.4 0 2.9-.3 4.3-.9v1.8c-.7.3-1.4.5-2 .7h-2.5zm-.5-12.1c-1.1 0-1.9.3-2.6 1-.6.7-1 1.7-1.1 2.9h7c0-1.3-.3-2.3-.9-2.9-.6-.7-1.4-1-2.4-1z"/></g><g><path data-cppathid="10054" d="M212.5 706.7v46.7" class="st7"/><path data-cppathid="10055" d="m196.6 748.7 15.9 27.6 16-27.6z"/></g><g><path data-cppathid="10056" d="M849.4 706.7v46.7" class="st7"/><path data-cppathid="10057" d="m833.5 748.7 15.9 27.6 16-27.6z"/></g></svg>